<?xml version="1.0" standalone="no"?>
<!DOCTYPE svg PUBLIC "-//W3C//DTD SVG 1.1//EN" "http://www.w3.org/Graphics/SVG/1.1/DTD/svg11.dtd" >
<svg xmlns="http://www.w3.org/2000/svg">
<metadata>Generated by IcoMoon</metadata>
<defs>
<font id="icomoon" horiz-adv-x="1024">
<font-face units-per-em="1024" ascent="960" descent="-64" />
<missing-glyph horiz-adv-x="1024" />
<glyph unicode="&#x20;" horiz-adv-x="512" d="" />
<glyph unicode="&#xe900;" glyph-name="instagram" d="M1021.211 659.039c-0.901 44.844-9.546 87.404-24.648 126.765l0.864-2.564c-27.269 68.973-80.886 122.542-148.117 149.127l-1.776 0.619c-36.797 14.221-79.355 22.866-123.812 23.777l-0.39 0.006c-54.834 2.643-72.231 3.23-211.26 3.23s-156.426-0.587-210.966-3.010c-44.868-0.891-87.454-9.538-126.838-24.648l2.564 0.864c-35.56-13.571-65.861-33.728-90.757-59.191l-0.045-0.046c-25.231-24.974-45.203-55.209-58.142-88.929l-0.582-1.727c-14.321-36.799-23.066-79.368-24.069-123.848l-0.008-0.427c-2.643-54.687-3.083-72.084-3.083-211.113s0.44-156.426 2.863-211.039c0.901-44.844 9.546-87.404 24.648-126.765l-0.864 2.564c27.156-68.969 80.642-122.575 147.754-149.271l1.772-0.622c36.98-14.286 79.749-22.937 124.429-23.778l0.359-0.005c54.613-2.422 72.010-3.010 211.039-3.010s156.426 0.587 211.039 3.010c44.844 0.901 87.404 9.546 126.765 24.648l-2.564-0.864c69.015 27.197 122.623 80.805 149.201 148.046l0.618 1.774c14.065 36.857 22.536 79.467 23.265 123.96l0.004 0.315c2.422 54.613 3.010 72.010 3.010 211.039s0.073 156.426-2.276 211.113zM929.014 240.631c-0.367-34.206-6.796-66.801-18.261-96.913l0.644 1.927c-17.638-44.773-52.415-79.55-96.038-96.787l-1.151-0.401c-28.185-10.799-60.777-17.226-94.819-17.616l-0.167-0.002c-54.026-2.422-70.175-3.010-206.855-3.010s-153.049 0.587-206.855 3.010c-34.205 0.365-66.801 6.795-96.912 18.261l1.926-0.644c-23.038 8.633-42.657 21.667-58.685 38.203l-0.040 0.041c-16.532 16.096-29.557 35.705-37.879 57.63l-0.365 1.094c-10.94 28.227-17.495 60.879-17.982 95l-0.002 0.207c-2.422 54.026-3.010 70.249-3.010 206.855s0.881 152.829 3.010 206.855c0.364 34.205 6.794 66.801 18.261 96.912l-0.644-1.926c8.609 23.071 21.702 42.703 38.338 58.673l0.053 0.051c16.095 16.512 35.706 29.515 57.631 37.808l1.093 0.363c28.185 10.797 60.777 17.225 94.819 17.616l0.167 0.002c54.026 2.422 70.249 3.010 206.855 3.010s153.049-0.587 206.855-3.010c34.206-0.367 66.801-6.796 96.913-18.261l-1.927 0.644c23.036-8.607 42.655-21.618 58.686-38.132l0.038-0.039c16.534-16.095 29.56-35.704 37.88-57.63l0.364-1.094c10.797-28.185 17.225-60.777 17.616-94.819l0.002-0.167c2.422-54.026 3.010-70.175 3.010-206.855s-0.22-152.609-2.569-206.855zM512.147 710.937c-145.297 0-263.084-117.787-263.084-263.084s117.787-263.084 263.084-263.084c145.297 0 263.084 117.787 263.084 263.084v0c0 145.297-117.787 263.084-263.084 263.084v0zM512.147 277.26c-94.257 0-170.667 76.41-170.667 170.667s76.41 170.667 170.667 170.667c94.257 0 170.667-76.41 170.667-170.667v0c0-94.257-76.41-170.667-170.667-170.667v0zM846.947 721.287c0-33.932-27.508-61.44-61.44-61.44s-61.44 27.508-61.44 61.44c0 33.932 27.508 61.44 61.44 61.44v0c33.932 0 61.44-27.508 61.44-61.44v0z" />
<glyph unicode="&#xe901;" glyph-name="alarm-clock" d="M554.667 872.491v44.843c0 23.564-19.103 42.667-42.667 42.667s-42.667-19.103-42.667-42.667v0-44.843c-240.101-22.165-426.648-222.602-426.648-466.609 0-117.576 43.314-225.036 114.855-307.294l-0.485 0.569c-42.895-21.566-71.814-65.229-71.814-115.647 0-1.704 0.033-3.399 0.098-5.087l-0.007 0.243c0-23.564 19.103-42.667 42.667-42.667s42.667 19.103 42.667 42.667v0c-0.012 0.411-0.019 0.895-0.019 1.38 0 26.932 20.794 49.008 47.204 51.046l0.175 0.011c3.229 0.624 6.087 1.539 8.786 2.746l-0.252-0.101c78.036-60.988 177.547-97.794 285.653-97.794s207.617 36.805 286.684 98.569l-1.030-0.775c2.191-1.042 4.776-1.976 7.46-2.664l0.305-0.066c26.738-1.878 47.717-24.030 47.717-51.081 0-0.447-0.006-0.892-0.017-1.336l0.001 0.066c0-23.564 19.103-42.667 42.667-42.667s42.667 19.103 42.667 42.667v0c0.058 1.445 0.091 3.14 0.091 4.844 0 50.418-28.918 94.081-71.073 115.309l-0.741 0.338c71.057 81.688 114.371 189.148 114.371 306.725 0 244.007-186.547 444.443-424.803 466.471l-1.845 0.138zM128 405.333c0 212.077 171.923 384 384 384s384-171.923 384-384c0-212.077-171.923-384-384-384v0c-211.97 0.267-383.733 172.030-384 383.974v0.026zM819.84 960c-23.564 0-42.667-19.103-42.667-42.667s19.103-42.667 42.667-42.667v0c2.507 0.202 5.428 0.318 8.376 0.318 59.793 0 108.494-47.488 110.446-106.805l0.005-0.179c0-23.564 19.103-42.667 42.667-42.667s42.667 19.103 42.667 42.667v0c-2.302 106.614-89.272 192.161-196.224 192.161-2.791 0-5.569-0.058-8.332-0.174l0.395 0.013zM85.333 768c1.957 59.497 50.658 106.985 110.451 106.985 2.948 0 5.869-0.115 8.758-0.342l-0.382 0.024c23.564 0 42.667 19.103 42.667 42.667s-19.103 42.667-42.667 42.667v0c-2.368 0.102-5.145 0.161-7.936 0.161-106.951 0-193.922-85.546-196.22-191.946l-0.004-0.214c0-23.564 19.103-42.667 42.667-42.667s42.667 19.103 42.667 42.667v0zM554.667 465.664v195.669c0 23.564-19.103 42.667-42.667 42.667s-42.667-19.103-42.667-42.667v0-213.333c0.003-11.781 4.78-22.446 12.501-30.165l128-128c7.665-7.41 18.12-11.977 29.641-11.977 23.564 0 42.667 19.103 42.667 42.667 0 11.521-4.567 21.976-11.989 29.653l0.012-0.012z" />
<glyph unicode="&#xe902;" glyph-name="align-center" d="M42.667 704h938.667c23.564 0 42.667 19.103 42.667 42.667s-19.103 42.667-42.667 42.667v0h-938.667c-23.564 0-42.667-19.103-42.667-42.667s19.103-42.667 42.667-42.667v0zM213.333 576c-23.564 0-42.667-19.103-42.667-42.667s19.103-42.667 42.667-42.667v0h597.333c23.564 0 42.667 19.103 42.667 42.667s-19.103 42.667-42.667 42.667v0zM810.667 149.333h-597.333c-23.564 0-42.667-19.103-42.667-42.667s19.103-42.667 42.667-42.667v0h597.333c23.564 0 42.667 19.103 42.667 42.667s-19.103 42.667-42.667 42.667v0zM981.333 362.667h-938.667c-23.564 0-42.667-19.103-42.667-42.667s19.103-42.667 42.667-42.667v0h938.667c23.564 0 42.667 19.103 42.667 42.667s-19.103 42.667-42.667 42.667v0z" />
<glyph unicode="&#xe903;" glyph-name="align-justify" d="M42.667 704h938.667c23.564 0 42.667 19.103 42.667 42.667s-19.103 42.667-42.667 42.667v0h-938.667c-23.564 0-42.667-19.103-42.667-42.667s19.103-42.667 42.667-42.667v0zM981.333 576h-938.667c-23.564 0-42.667-19.103-42.667-42.667s19.103-42.667 42.667-42.667v0h938.667c23.564 0 42.667 19.103 42.667 42.667s-19.103 42.667-42.667 42.667v0zM981.333 149.333h-938.667c-23.564 0-42.667-19.103-42.667-42.667s19.103-42.667 42.667-42.667v0h938.667c23.564 0 42.667 19.103 42.667 42.667s-19.103 42.667-42.667 42.667v0zM981.333 362.667h-938.667c-23.564 0-42.667-19.103-42.667-42.667s19.103-42.667 42.667-42.667v0h938.667c23.564 0 42.667 19.103 42.667 42.667s-19.103 42.667-42.667 42.667v0z" />
<glyph unicode="&#xe904;" glyph-name="align-left" d="M42.667 704h938.667c23.564 0 42.667 19.103 42.667 42.667s-19.103 42.667-42.667 42.667v0h-938.667c-23.564 0-42.667-19.103-42.667-42.667s19.103-42.667 42.667-42.667v0zM42.667 490.667h597.333c23.564 0 42.667 19.103 42.667 42.667s-19.103 42.667-42.667 42.667v0h-597.333c-23.564 0-42.667-19.103-42.667-42.667s19.103-42.667 42.667-42.667v0zM640 149.333h-597.333c-23.564 0-42.667-19.103-42.667-42.667s19.103-42.667 42.667-42.667v0h597.333c23.564 0 42.667 19.103 42.667 42.667s-19.103 42.667-42.667 42.667v0zM981.333 362.667h-938.667c-23.564 0-42.667-19.103-42.667-42.667s19.103-42.667 42.667-42.667v0h938.667c23.564 0 42.667 19.103 42.667 42.667s-19.103 42.667-42.667 42.667v0z" />
<glyph unicode="&#xe905;" glyph-name="align-right" d="M42.667 704h938.667c23.564 0 42.667 19.103 42.667 42.667s-19.103 42.667-42.667 42.667v0h-938.667c-23.564 0-42.667-19.103-42.667-42.667s19.103-42.667 42.667-42.667v0zM981.333 576h-597.333c-23.564 0-42.667-19.103-42.667-42.667s19.103-42.667 42.667-42.667v0h597.333c23.564 0 42.667 19.103 42.667 42.667s-19.103 42.667-42.667 42.667v0zM981.333 149.333h-597.333c-23.564 0-42.667-19.103-42.667-42.667s19.103-42.667 42.667-42.667v0h597.333c23.564 0 42.667 19.103 42.667 42.667s-19.103 42.667-42.667 42.667v0zM981.333 362.667h-938.667c-23.564 0-42.667-19.103-42.667-42.667s19.103-42.667 42.667-42.667v0h938.667c23.564 0 42.667 19.103 42.667 42.667s-19.103 42.667-42.667 42.667v0z" />
<glyph unicode="&#xe906;" glyph-name="ambulance" d="M983.552 462.763l-77.611 174.549c-40.868 90.317-130.194 152.021-233.933 152.021-0.003 0-0.006 0-0.009 0h-57.599l-28.16 112.725c-8.625 33.528-38.586 57.905-74.24 57.905s-65.615-24.377-74.124-57.374l-0.116-0.531-28.16-112.725h-196.267c-117.762-0.146-213.188-95.571-213.333-213.319v-341.347c0.198-56.3 36.785-104.003 87.46-120.828l0.902-0.26c-1.84-8.453-2.938-18.194-3.029-28.177v-0.068c0-82.475 66.859-149.333 149.333-149.333s149.333 66.859 149.333 149.333v0c-0.073 7.59-0.707 14.971-1.861 22.178l0.112-0.845h259.499c-1.043-6.363-1.676-13.744-1.749-21.259l-0.001-0.074c0-82.475 66.859-149.333 149.333-149.333s149.333 66.859 149.333 149.333v0c-0.091 10.051-1.19 19.793-3.2 29.196l0.17-0.951c51.577 17.085 88.165 64.788 88.363 121.064v37.485c0 0.196 0 0.429 0 0.661 0 68.795-14.896 134.11-41.639 192.897l1.191-2.923zM827.989 602.624l49.792-111.957h-152.448c-23.564 0-42.667 19.103-42.667 42.667v0 169.899c64.791-4.092 119.419-43.762 144.886-99.541l0.436-1.067zM298.667 85.333c0-35.346-28.654-64-64-64s-64 28.654-64 64v0c0.028 7.676 1.482 15.004 4.109 21.745l-0.141-0.412h120.064c2.486-6.329 3.94-13.657 3.968-21.321v-0.012zM789.333 21.333c-35.346 0-64 28.654-64 64v0c0.028 7.676 1.482 15.004 4.109 21.745l-0.141-0.412h120.064c2.486-6.329 3.94-13.657 3.968-21.321v-0.012c0-35.346-28.654-64-64-64v0zM938.667 234.667c0-23.564-19.103-42.667-42.667-42.667v0h-768c-23.564 0-42.667 19.103-42.667 42.667v0 341.333c0 70.692 57.308 128 128 128v0h384v-170.667c0-70.692 57.308-128 128-128v0h188.971c15.337-39.551 24.266-85.321 24.363-133.165v-0.041zM469.333 448c0-23.564-19.103-42.667-42.667-42.667v0h-42.667v-42.667c0-23.564-19.103-42.667-42.667-42.667s-42.667 19.103-42.667 42.667v0 42.667h-42.667c-23.564 0-42.667 19.103-42.667 42.667s19.103 42.667 42.667 42.667v0h42.667v42.667c0 23.564 19.103 42.667 42.667 42.667s42.667-19.103 42.667-42.667v0-42.667h42.667c23.564 0 42.667-19.103 42.667-42.667v0z" />
<glyph unicode="&#xe907;" glyph-name="angle-double-left" d="M512-64c-11.781 0.003-22.446 4.78-30.165 12.501l-348.629 348.672c-38.592 38.604-62.461 91.928-62.461 150.827s23.869 112.223 62.462 150.827l348.629 348.671c7.665 7.41 18.12 11.977 29.641 11.977 23.564 0 42.667-19.103 42.667-42.667 0-11.521-4.567-21.976-11.989-29.653l-348.617-348.66c-23.155-23.162-37.477-55.157-37.477-90.496s14.321-67.334 37.477-90.496l348.629-348.672c7.718-7.721 12.492-18.386 12.492-30.165 0-23.561-19.097-42.661-42.657-42.667h-0.001zM938.667-64c-11.781 0.003-22.446 4.78-30.165 12.501l-409.003 409.003c-23.155 23.162-37.477 55.157-37.477 90.496s14.321 67.334 37.477 90.496l409.002 409.002c7.665 7.41 18.12 11.977 29.641 11.977 23.564 0 42.667-19.103 42.667-42.667 0-11.521-4.567-21.976-11.989-29.653l-408.991-408.991c-7.718-7.721-12.492-18.386-12.492-30.165s4.774-22.445 12.492-30.165l409.003-409.003c7.718-7.721 12.492-18.386 12.492-30.165 0-23.561-19.097-42.661-42.657-42.667h-0.001z" />
<glyph unicode="&#xe908;" glyph-name="angle-double-right" d="M504.661-64c-23.56 0.005-42.658 19.106-42.658 42.667 0 11.78 4.774 22.445 12.492 30.165l348.672 348.672c23.155 23.162 37.477 55.157 37.477 90.496s-14.321 67.334-37.477 90.496l-348.672 348.672c-8.036 7.769-13.026 18.647-13.026 30.69 0 23.564 19.103 42.667 42.667 42.667 12.043 0 22.92-4.989 30.678-13.014l348.684-348.684c38.592-38.604 62.461-91.928 62.461-150.827s-23.869-112.223-62.462-150.827l-348.671-348.671c-7.719-7.722-18.384-12.499-30.165-12.501h-0.001zM77.995-64c-23.56 0.005-42.658 19.106-42.658 42.667 0 11.78 4.774 22.445 12.492 30.165l409.003 409.003c7.718 7.721 12.492 18.386 12.492 30.165s-4.774 22.445-12.492 30.165l-409.003 409.003c-7.41 7.665-11.977 18.12-11.977 29.641 0 23.564 19.103 42.667 42.667 42.667 11.521 0 21.976-4.567 29.653-11.989l408.991-408.991c23.155-23.162 37.477-55.157 37.477-90.496s-14.321-67.334-37.477-90.496l-409.002-409.002c-7.719-7.722-18.384-12.499-30.165-12.501h-0.001z" />
<glyph unicode="&#xe909;" glyph-name="angle-double-small-left" d="M447.232 149.333c-11.781 0.003-22.446 4.78-30.165 12.501l-195.669 195.669c-23.155 23.162-37.477 55.157-37.477 90.496s14.321 67.334 37.477 90.496l195.669 195.669c7.665 7.41 18.12 11.977 29.641 11.977 23.564 0 42.667-19.103 42.667-42.667 0-11.521-4.567-21.976-11.989-29.653l-195.785-195.657c-7.718-7.721-12.492-18.386-12.492-30.165s4.774-22.445 12.492-30.165l195.627-195.669c7.719-7.721 12.493-18.386 12.493-30.166 0-23.501-19-42.564-42.478-42.666h-0.010zM745.899 149.333c-11.781 0.003-22.446 4.78-30.165 12.501l-256 256c-7.718 7.721-12.492 18.386-12.492 30.165s4.774 22.445 12.492 30.165l256 256c7.769 8.036 18.647 13.026 30.69 13.026 23.564 0 42.667-19.103 42.667-42.667 0-12.043-4.989-22.92-13.014-30.678l-225.676-225.847 225.835-225.835c7.719-7.721 12.493-18.386 12.493-30.166 0-23.564-19.103-42.667-42.667-42.667-0.057 0-0.114 0-0.171 0h0.009z" />
<glyph unicode="&#xe90a;" glyph-name="angle-double-small-right" d="M558.933 149.333c-0.010 0-0.022 0-0.034 0-23.564 0-42.667 19.103-42.667 42.667 0 11.78 4.774 22.445 12.492 30.165l195.669 195.669c7.718 7.721 12.492 18.386 12.492 30.165s-4.774 22.445-12.492 30.165v0l-195.328 195.669c-7.716 7.722-12.489 18.386-12.489 30.165 0 23.569 19.106 42.675 42.675 42.675 11.79 0 22.463-4.781 30.186-12.51l195.627-195.67c23.155-23.162 37.477-55.157 37.477-90.496s-14.321-67.334-37.477-90.496l-195.669-195.669c-7.722-7.724-18.391-12.502-30.175-12.502-0.101 0-0.203 0-0.304 0.001h0.016zM260.267 149.333c-23.432 0.174-42.36 19.209-42.36 42.666 0 11.78 4.774 22.446 12.493 30.166l225.664 225.835-225.664 225.835c-6.871 7.546-11.079 17.623-11.079 28.683 0 23.564 19.103 42.667 42.667 42.667 11.028 0 21.078-4.184 28.651-11.051l-0.036 0.032 256-256c7.718-7.721 12.492-18.386 12.492-30.165s-4.774-22.445-12.492-30.165l-256-256c-7.722-7.724-18.39-12.502-30.175-12.502-0.057 0-0.113 0-0.17 0h0.009z" />
<glyph unicode="&#xe90b;" glyph-name="angle-down" d="M512 227.456c-0.116 0-0.253 0-0.39 0-58.775 0-111.981 23.84-150.478 62.377l-348.631 348.674c-7.41 7.665-11.977 18.12-11.977 29.641 0 23.564 19.103 42.667 42.667 42.667 11.521 0 21.976-4.567 29.653-11.989l348.617-348.66c23.19-23.129 55.194-37.431 90.539-37.431s67.349 14.302 90.541 37.434l348.626 348.669c7.769 8.036 18.647 13.026 30.69 13.026 23.564 0 42.667-19.103 42.667-42.667 0-12.043-4.989-22.92-13.014-30.678l-348.641-348.684c-38.498-38.539-91.705-62.379-150.479-62.379-0.137 0-0.274 0-0.411 0h0.021z" />
<glyph unicode="&#xe90c;" glyph-name="angle-left" d="M732.672-64c-11.781 0.003-22.446 4.78-30.165 12.501l-348.672 348.672c-38.592 38.604-62.461 91.928-62.461 150.827s23.869 112.223 62.462 150.827l348.671 348.671c7.665 7.41 18.12 11.977 29.641 11.977 23.564 0 42.667-19.103 42.667-42.667 0-11.521-4.567-21.976-11.989-29.653l-348.66-348.66c-23.155-23.162-37.477-55.157-37.477-90.496s14.321-67.334 37.477-90.496l348.672-348.672c7.718-7.721 12.492-18.386 12.492-30.165 0-23.561-19.097-42.661-42.657-42.667h-0.001z" />
<glyph unicode="&#xe90d;" glyph-name="angle-right" d="M298.667-64c-23.56 0.005-42.658 19.106-42.658 42.667 0 11.78 4.774 22.445 12.492 30.165l348.672 348.672c23.155 23.162 37.477 55.157 37.477 90.496s-14.321 67.334-37.477 90.496l-348.672 348.672c-7.41 7.665-11.977 18.12-11.977 29.641 0 23.564 19.103 42.667 42.667 42.667 11.521 0 21.976-4.567 29.653-11.989l348.66-348.66c38.541-38.627 62.373-91.944 62.373-150.827s-23.832-112.2-62.377-150.83l-348.668-348.668c-7.719-7.722-18.384-12.499-30.165-12.501h-0.001z" />
<glyph unicode="&#xe90e;" glyph-name="angle-small-down" d="M798.165 609.835c-7.721 7.718-18.386 12.492-30.165 12.492s-22.445-4.774-30.165-12.492l-195.669-195.669c-7.815-7.509-18.45-12.134-30.165-12.134s-22.351 4.625-30.18 12.148l0.015-0.014-195.669 195.669c-7.665 7.41-18.12 11.977-29.641 11.977-23.564 0-42.667-19.103-42.667-42.667 0-11.521 4.567-21.976 11.989-29.653l195.615-195.657c23.164-23.168 55.167-37.498 90.517-37.498s67.353 14.33 90.517 37.498l195.67 195.67c7.718 7.721 12.492 18.386 12.492 30.165s-4.774 22.445-12.492 30.165v0z" />
<glyph unicode="&#xe90f;" glyph-name="angle-small-left" d="M452.267 417.835c-7.718 7.721-12.492 18.386-12.492 30.165s4.774 22.445 12.492 30.165l195.627 195.669c7.41 7.665 11.977 18.12 11.977 29.641 0 23.564-19.103 42.667-42.667 42.667-11.521 0-21.976-4.567-29.653-11.989l-195.487-195.657c-23.155-23.162-37.477-55.157-37.477-90.496s14.321-67.334 37.477-90.496l195.669-195.669c7.665-7.41 18.12-11.977 29.641-11.977 23.564 0 42.667 19.103 42.667 42.667 0 11.521-4.567 21.976-11.989 29.653l0.012-0.012z" />
<glyph unicode="&#xe910;" glyph-name="angle-small-right" d="M657.067 538.496l-195.797 195.669c-7.537 6.835-17.588 11.019-28.615 11.019-23.564 0-42.667-19.103-42.667-42.667 0-11.060 4.208-21.136 11.11-28.717l-0.031 0.034 195.669-195.669c7.718-7.721 12.492-18.386 12.492-30.165s-4.774-22.445-12.492-30.165l-195.669-195.669c-7.716-7.722-12.489-18.386-12.489-30.165 0-23.569 19.106-42.675 42.675-42.675 11.79 0 22.463 4.781 30.186 12.51l195.627 195.67c23.155 23.162 37.477 55.157 37.477 90.496s-14.321 67.334-37.477 90.496v0z" />
<glyph unicode="&#xe911;" glyph-name="angle-small-up" d="M768 298.667c-11.781 0.003-22.446 4.78-30.165 12.501l-195.669 195.669c-7.815 7.509-18.45 12.134-30.165 12.134s-22.351-4.625-30.18-12.148l0.015 0.014-195.669-195.669c-7.665-7.41-18.12-11.977-29.641-11.977-23.564 0-42.667 19.103-42.667 42.667 0 11.521 4.567 21.976 11.989 29.653l195.657 195.657c23.489 22.445 55.39 36.259 90.517 36.259s67.029-13.814 90.567-36.306l-0.050 0.047 195.627-195.669c7.718-7.721 12.492-18.386 12.492-30.165 0-23.561-19.097-42.661-42.657-42.667h-0.001z" />
<glyph unicode="&#xe912;" glyph-name="angle-up" d="M1011.499 264.832l-348.629 348.672c-38.645 38.535-91.975 62.363-150.869 62.363s-112.224-23.827-150.874-62.368l-348.624-348.667c-7.41-7.665-11.977-18.12-11.977-29.641 0-23.564 19.103-42.667 42.667-42.667 11.521 0 21.976 4.567 29.653 11.989l348.617 348.66c23.204 23.099 55.204 37.378 90.539 37.378s67.335-14.28 90.543-37.383l348.624-348.667c7.665-7.41 18.12-11.977 29.641-11.977 23.564 0 42.667 19.103 42.667 42.667 0 11.521-4.567 21.976-11.989 29.653l0.012-0.012z" />
<glyph unicode="&#xe913;" glyph-name="apps" d="M298.667 960h-128c-94.257 0-170.667-76.41-170.667-170.667v0-128c0-94.257 76.41-170.667 170.667-170.667v0h128c94.257 0 170.667 76.41 170.667 170.667v0 128c0 94.257-76.41 170.667-170.667 170.667v0zM384 661.333c0-47.128-38.205-85.333-85.333-85.333v0h-128c-47.128 0-85.333 38.205-85.333 85.333v0 128c0 47.128 38.205 85.333 85.333 85.333v0h128c47.128 0 85.333-38.205 85.333-85.333v0zM853.333 960h-128c-94.257 0-170.667-76.41-170.667-170.667v0-128c0-94.257 76.41-170.667 170.667-170.667v0h128c94.257 0 170.667 76.41 170.667 170.667v0 128c0 94.257-76.41 170.667-170.667 170.667v0zM938.667 661.333c0-47.128-38.205-85.333-85.333-85.333v0h-128c-47.128 0-85.333 38.205-85.333 85.333v0 128c0 47.128 38.205 85.333 85.333 85.333v0h128c47.128 0 85.333-38.205 85.333-85.333v0zM298.667 405.333h-128c-94.257 0-170.667-76.41-170.667-170.667v0-128c0-94.257 76.41-170.667 170.667-170.667v0h128c94.257 0 170.667 76.41 170.667 170.667v0 128c0 94.257-76.41 170.667-170.667 170.667v0zM384 106.667c0-47.128-38.205-85.333-85.333-85.333v0h-128c-47.128 0-85.333 38.205-85.333 85.333v0 128c0 47.128 38.205 85.333 85.333 85.333v0h128c47.128 0 85.333-38.205 85.333-85.333v0zM853.333 405.333h-128c-94.257 0-170.667-76.41-170.667-170.667v0-128c0-94.257 76.41-170.667 170.667-170.667v0h128c94.257 0 170.667 76.41 170.667 170.667v0 128c0 94.257-76.41 170.667-170.667 170.667v0zM938.667 106.667c0-47.128-38.205-85.333-85.333-85.333v0h-128c-47.128 0-85.333 38.205-85.333 85.333v0 128c0 47.128 38.205 85.333 85.333 85.333v0h128c47.128 0 85.333-38.205 85.333-85.333v0z" />
<glyph unicode="&#xe914;" glyph-name="apps-add" d="M298.667 960h-128c-94.257 0-170.667-76.41-170.667-170.667v0-128c0-94.257 76.41-170.667 170.667-170.667v0h128c94.257 0 170.667 76.41 170.667 170.667v0 128c0 94.257-76.41 170.667-170.667 170.667v0zM384 661.333c0-47.128-38.205-85.333-85.333-85.333v0h-128c-47.128 0-85.333 38.205-85.333 85.333v0 128c0 47.128 38.205 85.333 85.333 85.333v0h128c47.128 0 85.333-38.205 85.333-85.333v0zM298.667 405.333h-128c-94.257 0-170.667-76.41-170.667-170.667v0-128c0-94.257 76.41-170.667 170.667-170.667v0h128c94.257 0 170.667 76.41 170.667 170.667v0 128c0 94.257-76.41 170.667-170.667 170.667v0zM384 106.667c0-47.128-38.205-85.333-85.333-85.333v0h-128c-47.128 0-85.333 38.205-85.333 85.333v0 128c0 47.128 38.205 85.333 85.333 85.333v0h128c47.128 0 85.333-38.205 85.333-85.333v0zM853.333 405.333h-128c-94.257 0-170.667-76.41-170.667-170.667v0-128c0-94.257 76.41-170.667 170.667-170.667v0h128c94.257 0 170.667 76.41 170.667 170.667v0 128c0 94.257-76.41 170.667-170.667 170.667v0zM938.667 106.667c0-47.128-38.205-85.333-85.333-85.333v0h-128c-47.128 0-85.333 38.205-85.333 85.333v0 128c0 47.128 38.205 85.333 85.333 85.333v0h128c47.128 0 85.333-38.205 85.333-85.333v0zM597.333 661.333h128v-128c0-23.564 19.103-42.667 42.667-42.667s42.667 19.103 42.667 42.667v0 128h128c23.564 0 42.667 19.103 42.667 42.667s-19.103 42.667-42.667 42.667v0h-128v128c0 23.564-19.103 42.667-42.667 42.667s-42.667-19.103-42.667-42.667v0-128h-128c-23.564 0-42.667-19.103-42.667-42.667s19.103-42.667 42.667-42.667v0z" />
<glyph unicode="&#xe915;" glyph-name="apps-delete" d="M298.667 960h-128c-94.257 0-170.667-76.41-170.667-170.667v0-128c0-94.257 76.41-170.667 170.667-170.667v0h128c94.257 0 170.667 76.41 170.667 170.667v0 128c0 94.257-76.41 170.667-170.667 170.667v0zM384 661.333c0-47.128-38.205-85.333-85.333-85.333v0h-128c-47.128 0-85.333 38.205-85.333 85.333v0 128c0 47.128 38.205 85.333 85.333 85.333v0h128c47.128 0 85.333-38.205 85.333-85.333v0zM298.667 405.333h-128c-94.257 0-170.667-76.41-170.667-170.667v0-128c0-94.257 76.41-170.667 170.667-170.667v0h128c94.257 0 170.667 76.41 170.667 170.667v0 128c0 94.257-76.41 170.667-170.667 170.667v0zM384 106.667c0-47.128-38.205-85.333-85.333-85.333v0h-128c-47.128 0-85.333 38.205-85.333 85.333v0 128c0 47.128 38.205 85.333 85.333 85.333v0h128c47.128 0 85.333-38.205 85.333-85.333v0zM853.333 405.333h-128c-94.257 0-170.667-76.41-170.667-170.667v0-128c0-94.257 76.41-170.667 170.667-170.667v0h128c94.257 0 170.667 76.41 170.667 170.667v0 128c0 94.257-76.41 170.667-170.667 170.667v0zM938.667 106.667c0-47.128-38.205-85.333-85.333-85.333v0h-128c-47.128 0-85.333 38.205-85.333 85.333v0 128c0 47.128 38.205 85.333 85.333 85.333v0h128c47.128 0 85.333-38.205 85.333-85.333v0zM597.333 661.333h341.333c23.564 0 42.667 19.103 42.667 42.667s-19.103 42.667-42.667 42.667v0h-341.333c-23.564 0-42.667-19.103-42.667-42.667s19.103-42.667 42.667-42.667v0z" />
<glyph unicode="&#xe916;" glyph-name="apps-sort" d="M298.667 960h-128c-94.257 0-170.667-76.41-170.667-170.667v0-128c0-94.257 76.41-170.667 170.667-170.667v0h128c94.257 0 170.667 76.41 170.667 170.667v0 128c0 94.257-76.41 170.667-170.667 170.667v0zM384 661.333c0-47.128-38.205-85.333-85.333-85.333v0h-128c-47.128 0-85.333 38.205-85.333 85.333v0 128c0 47.128 38.205 85.333 85.333 85.333v0h128c47.128 0 85.333-38.205 85.333-85.333v0zM298.667 405.333h-128c-94.257 0-170.667-76.41-170.667-170.667v0-128c0-94.257 76.41-170.667 170.667-170.667v0h128c94.257 0 170.667 76.41 170.667 170.667v0 128c0 94.257-76.41 170.667-170.667 170.667v0zM384 106.667c0-47.128-38.205-85.333-85.333-85.333v0h-128c-47.128 0-85.333 38.205-85.333 85.333v0 128c0 47.128 38.205 85.333 85.333 85.333v0h128c47.128 0 85.333-38.205 85.333-85.333v0zM951.168 147.243l-97.835-97.707v798.123l97.835-97.707c7.722-7.716 18.386-12.489 30.165-12.489 23.569 0 42.675 19.106 42.675 42.675 0 11.79-4.781 22.463-12.51 30.186l-110.379 110.208c-23.158 23.13-55.135 37.434-90.453 37.434s-67.296-14.304-90.455-37.435l-110.377-110.207c-7.729-7.724-12.51-18.397-12.51-30.187 0-23.569 19.106-42.675 42.675-42.675 11.779 0 22.444 4.772 30.166 12.489l97.834 97.706v-798.123l-97.835 97.707c-7.722 7.716-18.386 12.489-30.165 12.489-23.569 0-42.675-19.106-42.675-42.675 0-11.79 4.781-22.463 12.51-30.186l110.379-110.208c23.158-23.13 55.135-37.434 90.453-37.434s67.296 14.304 90.455 37.435l110.377 110.207c7.729 7.724 12.51 18.397 12.51 30.187 0 23.569-19.106 42.675-42.675 42.675-11.779 0-22.444-4.772-30.166-12.489v0z" />
<glyph unicode="&#xe917;" glyph-name="archive" d="M725.333 960h-426.667c-117.762-0.146-213.188-95.571-213.333-213.319v-597.347c0.146-117.762 95.571-213.188 213.319-213.333h426.681c117.762 0.146 213.188 95.571 213.333 213.319v597.347c-0.146 117.762-95.571 213.188-213.319 213.333h-0.014zM298.667 874.667h426.667c70.692 0 128-57.308 128-128v0-256h-682.667v256c0 70.692 57.308 128 128 128v0zM725.333 21.333h-426.667c-70.692 0-128 57.308-128 128v0 256h682.667v-256c0-70.692-57.308-128-128-128v0zM469.333 661.333h85.333c23.564 0 42.667 19.103 42.667 42.667s-19.103 42.667-42.667 42.667v0h-85.333c-23.564 0-42.667-19.103-42.667-42.667s19.103-42.667 42.667-42.667v0zM554.667 234.667h-85.333c-23.564 0-42.667-19.103-42.667-42.667s19.103-42.667 42.667-42.667v0h85.333c23.564 0 42.667 19.103 42.667 42.667s-19.103 42.667-42.667 42.667v0z" />
<glyph unicode="&#xe918;" glyph-name="arrow-down" d="M770.048 201.045c-7.721 7.718-18.386 12.492-30.165 12.492s-22.445-4.774-30.165-12.492l-155.051-154.923v871.211c0 23.564-19.103 42.667-42.667 42.667v0 0c-23.564 0-42.667-19.103-42.667-42.667v0-870.741l-154.411 154.453c-7.824 8.493-19 13.794-31.414 13.794-23.564 0-42.667-19.103-42.667-42.667 0-12.393 5.284-23.552 13.721-31.347l0.029-0.026 167.211-167.211c23.164-23.168 55.167-37.498 90.517-37.498s67.353 14.33 90.517 37.498l167.211 167.211c7.693 7.716 12.45 18.364 12.45 30.123s-4.757 22.406-12.451 30.124l0.001-0.001z" />
<glyph unicode="&#xe919;" glyph-name="arrow-left" d="M37.376 358.912l165.504-165.504c7.721-7.718 18.386-12.492 30.165-12.492s22.445 4.774 30.165 12.492v0c7.718 7.721 12.492 18.386 12.492 30.165s-4.774 22.445-12.492 30.165l-151.68 151.595h869.803c23.564 0 42.667 19.103 42.667 42.667v0 0c0 23.564-19.103 42.667-42.667 42.667v0h-872.405l154.283 154.411c7.718 7.721 12.492 18.386 12.492 30.165s-4.774 22.445-12.492 30.165v0c-7.721 7.718-18.386 12.492-30.165 12.492s-22.445-4.774-30.165-12.492l-165.547-165.504c-23.071-23.193-37.332-55.168-37.332-90.475 0-35.328 14.278-67.32 37.379-90.522l-0.004 0.004z" />
<glyph unicode="&#xe91a;" glyph-name="arrow-right" d="M986.624 537.301l-165.504 165.461c-7.721 7.718-18.386 12.492-30.165 12.492s-22.445-4.774-30.165-12.492v0c-7.718-7.721-12.492-18.386-12.492-30.165s4.774-22.445 12.492-30.165l151.68-151.765h-869.803c-23.564 0-42.667-19.103-42.667-42.667v0 0c0-23.564 19.103-42.667 42.667-42.667v0h872.405l-154.283-154.24c-7.731-7.723-12.514-18.396-12.514-30.187s4.782-22.464 12.513-30.186v0c7.721-7.718 18.386-12.492 30.165-12.492s22.445 4.774 30.165 12.492l165.547 165.504c23.086 23.202 37.357 55.193 37.357 90.517 0 35.346-14.288 67.354-37.404 90.564l0.004-0.004z" />
<glyph unicode="&#xe91b;" glyph-name="arrow-small-down" d="M755.499 400.171c-7.721 7.718-18.386 12.492-30.165 12.492s-22.445-4.774-30.165-12.492l-140.501-140.459-0.299 444.288c0 23.564-19.103 42.667-42.667 42.667s-42.667-19.103-42.667-42.667v0l0.299-444.331-140.501 140.501c-7.769 8.036-18.647 13.026-30.69 13.026-23.564 0-42.667-19.103-42.667-42.667 0-12.043 4.989-22.92 13.014-30.678l152.972-153.015c23.164-23.168 55.167-37.498 90.517-37.498s67.353 14.33 90.517 37.498l153.003 153.003c7.718 7.721 12.492 18.386 12.492 30.165s-4.774 22.445-12.492 30.165v0z" />
<glyph unicode="&#xe91c;" glyph-name="arrow-small-left" d="M464.213 204.16c7.731 7.723 12.514 18.396 12.514 30.187s-4.782 22.464-12.513 30.186v0l-140.459 140.501 444.245 0.299c23.564 0 42.667 19.103 42.667 42.667s-19.103 42.667-42.667 42.667v0l-444.331-0.299 140.544 140.459c7.729 7.724 12.51 18.397 12.51 30.187 0 23.569-19.106 42.675-42.675 42.675-11.779 0-22.444-4.772-30.166-12.489l-153.002-153.002c-23.168-23.164-37.498-55.167-37.498-90.517s14.33-67.353 37.498-90.517l153.003-153.003c7.721-7.718 18.386-12.492 30.165-12.492s22.445 4.774 30.165 12.492v0z" />
<glyph unicode="&#xe91d;" glyph-name="arrow-small-right" d="M559.829 691.499c-7.718-7.721-12.492-18.386-12.492-30.165s4.774-22.445 12.492-30.165l140.459-140.501-444.288-0.299c-23.564 0-42.667-19.103-42.667-42.667s19.103-42.667 42.667-42.667v0l444.331 0.299-140.501-140.501c-8.036-7.769-13.026-18.647-13.026-30.69 0-23.564 19.103-42.667 42.667-42.667 12.043 0 22.92 4.989 30.678 13.014l153.015 152.972c23.168 23.164 37.498 55.167 37.498 90.517s-14.33 67.353-37.498 90.517l-153.003 153.003c-7.721 7.718-18.386 12.492-30.165 12.492s-22.445-4.774-30.165-12.492v0z" />
<glyph unicode="&#xe91e;" glyph-name="arrow-small-up" d="M268.501 495.829c7.721-7.718 18.386-12.492 30.165-12.492s22.445 4.774 30.165 12.492l140.501 140.459 0.299-444.288c0-23.564 19.103-42.667 42.667-42.667s42.667 19.103 42.667 42.667v0l-0.299 444.331 140.501-140.501c7.769-8.036 18.647-13.026 30.69-13.026 23.564 0 42.667 19.103 42.667 42.667 0 12.043-4.989 22.92-13.014 30.678l-152.972 153.015c-23.164 23.168-55.167 37.498-90.517 37.498s-67.353-14.33-90.517-37.498l-153.003-153.003c-7.718-7.721-12.492-18.386-12.492-30.165s4.774-22.445 12.492-30.165v0z" />
<glyph unicode="&#xe91f;" glyph-name="arrow-up" d="M798.165 726.955l-195.669 195.712c-23.195 23.084-55.179 37.354-90.496 37.354s-67.301-14.27-90.501-37.358l-195.664-195.707c-8.036-7.769-13.026-18.647-13.026-30.69 0-23.564 19.103-42.667 42.667-42.667 12.043 0 22.92 4.989 30.678 13.014l183.18 183.137v-871.083c0-23.564 19.103-42.667 42.667-42.667s42.667 19.103 42.667 42.667v0 871.125l183.168-183.168c7.769-8.036 18.647-13.026 30.69-13.026 23.564 0 42.667 19.103 42.667 42.667 0 12.043-4.989 22.92-13.014 30.678l-0.012 0.012z" />
<glyph unicode="&#xe920;" glyph-name="asterisk" d="M876.245 418.133l-48.213 29.867 48.256 29.867c33.315 20.049 58.983 49.875 73.349 85.474l0.421 1.182c6.706 17.397 10.59 37.525 10.59 58.561 0 86.476-65.645 157.619-149.821 166.317l-0.716 0.060c-4.296 0.373-9.296 0.586-14.345 0.586-35.698 0-68.914-10.631-96.653-28.899l0.662 0.409-17.109-10.624v31.061c0.016 0.87 0.024 1.896 0.024 2.924 0 89.343-66.717 163.104-153.048 174.179l-0.875 0.092c-5.028 0.526-10.863 0.826-16.768 0.826-94.257 0-170.667-76.41-170.667-170.667 0-0.005 0-0.011 0-0.016v0.001-38.4l-17.067 10.667c-27.109 17.932-60.382 28.609-96.148 28.609-5.009 0-9.969-0.209-14.872-0.62l0.641 0.043c-84.939-8.685-150.646-79.844-150.646-166.35 0-21.015 3.878-41.123 10.956-59.65l-0.385 1.146c14.79-36.791 40.475-66.62 73.021-86.213l0.793-0.443 48.341-30.123-48.256-29.867c-33.315-20.049-58.983-49.875-73.349-85.474l-0.421-1.182c-6.71-17.4-10.598-37.533-10.598-58.574 0-86.56 65.79-157.755 150.094-166.307l0.706-0.058c4.292-0.372 9.286-0.585 14.33-0.585 35.615 0 68.759 10.581 96.459 28.771l-0.666-0.411 17.067 10.752v-38.4c0-94.257 76.41-170.667 170.667-170.667s170.667 76.41 170.667 170.667v0 38.4l17.067-10.709c27.066-17.823 60.257-28.431 95.926-28.431 4.982 0 9.915 0.207 14.792 0.613l-0.639-0.043c84.972 8.65 150.718 79.825 150.718 166.357 0 21.044-3.888 41.18-10.986 59.728l0.385-1.146c-14.764 36.785-40.402 66.622-72.897 86.256l-0.789 0.442zM862.976 229.632c-14.677-23.276-40.249-38.512-69.38-38.512-16.010 0-30.946 4.602-43.555 12.557l0.337-0.199-87.851 54.699c-6.399 4.037-14.184 6.432-22.528 6.432-23.564 0-42.667-19.103-42.667-42.667 0-0.026 0-0.053 0-0.079v0.004-115.2c0-47.128-38.205-85.333-85.333-85.333s-85.333 38.205-85.333 85.333v0 115.2c-0.006 23.56-19.106 42.656-42.667 42.656-8.344 0-16.129-2.395-22.705-6.536l0.177 0.104-87.851-54.784c-12.267-7.751-27.196-12.351-43.2-12.351-45.136 0-81.727 36.59-81.727 81.727 0 29.133 15.243 54.706 38.189 69.177l0.338 0.199 112 69.717c12.199 7.651 20.191 21.025 20.191 36.267s-7.991 28.616-20.013 36.162l-0.178 0.104-112 69.675c-23.283 14.67-38.527 40.243-38.527 69.376 0 45.136 36.59 81.727 81.727 81.727 16.004 0 30.933-4.6 43.538-12.55l-0.338 0.199 87.851-54.699c6.399-4.037 14.184-6.432 22.528-6.432 23.516 0 42.588 19.024 42.666 42.521v110.643c-0.014 0.584-0.022 1.273-0.022 1.963 0 42.697 30.225 78.334 70.445 86.684l0.574 0.1c4.31 0.772 9.272 1.213 14.336 1.213 47.128 0 85.333-38.205 85.333-85.333 0-0.021 0-0.043 0-0.064v0.003-115.2c0.030-23.541 19.121-42.614 42.667-42.614 8.344 0 16.129 2.395 22.705 6.536l-0.177-0.104 87.851 54.656c12.267 7.751 27.196 12.351 43.2 12.351 45.136 0 81.727-36.59 81.727-81.727 0-29.133-15.243-54.706-38.189-69.177l-0.338-0.199-112-69.717c-12.199-7.651-20.191-21.025-20.191-36.267s7.991-28.616 20.013-36.162l0.178-0.104 112-69.717c23.299-14.653 38.556-40.224 38.556-69.359 0-16.003-4.603-30.931-12.557-43.532l0.198 0.337z" />
<glyph unicode="&#xe921;" glyph-name="backpack" d="M384 490.667c0 23.564 19.103 42.667 42.667 42.667v0h170.667c23.564 0 42.667-19.103 42.667-42.667s-19.103-42.667-42.667-42.667v0h-170.667c-23.564 0-42.667 19.103-42.667 42.667v0zM1024 192v-42.667c-0.146-117.762-95.571-213.188-213.319-213.333h-597.348c-117.762 0.146-213.188 95.571-213.333 213.319v42.681c0.134 102.681 72.659 188.384 169.271 208.82l1.396 0.247v46.933c0.16 125.773 68.32 235.59 169.683 294.678l1.624 0.874c-0.085 1.067-0.64 2.005-0.64 3.115v42.667c0 94.257 76.41 170.667 170.667 170.667s170.667-76.41 170.667-170.667v0-42.667c0-1.109-0.555-2.048-0.64-3.115 102.987-59.962 171.147-169.779 171.307-295.529v-46.956c98.008-20.683 170.533-106.386 170.667-209.052v-0.015zM426.667 778.112c25.595 7.126 54.986 11.221 85.333 11.221s59.739-4.096 87.651-11.764l-2.317 0.543v11.221c0 47.128-38.205 85.333-85.333 85.333s-85.333-38.205-85.333-85.333v0zM256 254.507c64.943 66.75 155.636 108.162 256 108.162s191.056-41.412 255.921-108.080l0.079-0.082v193.493c0 141.385-114.615 256-256 256s-256-114.615-256-256v0zM213.333 21.333h1.109c-27.166 35.040-43.607 79.584-43.776 127.961v162.855c-49.975-18.042-85.097-64.964-85.333-120.121v-42.696c0-70.692 57.308-128 128-128v0zM640 21.333c58.114 0.28 107.051 39.245 122.401 92.451l0.223 0.904c-43.884 96.635-139.548 162.626-250.624 162.626s-206.74-65.991-249.923-160.906l-0.701-1.72c15.573-54.109 64.51-93.074 122.592-93.355h0.032zM938.667 192c-0.236 55.186-35.359 102.107-84.442 119.868l-0.891 0.282v-162.816c-0.169-48.416-16.61-92.96-44.136-128.483l0.36 0.483h1.109c70.692 0 128 57.308 128 128v0z" />
<glyph unicode="&#xe922;" glyph-name="badge" d="M853.333 618.667c0.001 0.221 0.001 0.484 0.001 0.746 0 188.513-152.82 341.333-341.333 341.333s-341.333-152.82-341.333-341.333c0-86.736 32.351-165.915 85.646-226.131l-0.313 0.361v-350.976c0 0 0-0.001 0-0.002 0-58.91 47.756-106.667 106.667-106.667 25.31 0 48.561 8.815 66.851 23.543l-0.206-0.16 69.376 55.467c3.614 2.905 8.258 4.663 13.312 4.663s9.698-1.758 13.354-4.695l-0.042 0.032 69.376-55.467c18.084-14.568 41.335-23.383 66.645-23.383 58.91 0 106.667 47.756 106.667 106.667 0 0.001 0 0.001 0 0.002v0 350.976c52.962 59.595 85.32 138.529 85.333 225.021v0.003zM512 874.667c141.385 0 256-114.615 256-256s-114.615-256-256-256c-141.385 0-256 114.615-256 256v0c0.146 141.326 114.674 255.854 255.986 256h0.014zM670.592 23.552c-2.712-1.374-5.913-2.178-9.301-2.178-5.052 0-9.687 1.789-13.305 4.767l-69.34 55.438c-18.057 14.639-41.316 23.503-66.645 23.503s-48.588-8.864-66.844-23.659l0.199 0.156-69.333-55.467c-3.621-2.926-8.281-4.697-13.355-4.697-11.753 0-21.287 9.505-21.333 21.247v280.836c48.89-29.015 107.776-46.163 170.667-46.163s121.777 17.148 172.237 47.024l-1.57-0.86v-280.832c0.001-0.073 0.001-0.16 0.001-0.246 0-8.319-4.888-15.495-11.949-18.815l-0.127-0.054z" />
<glyph unicode="&#xe923;" glyph-name="ban" d="M512 960c-282.77 0-512-229.23-512-512s229.23-512 512-512c282.77 0 512 229.23 512 512v0c-0.316 282.643-229.358 511.685-511.97 512h-0.030zM512 874.667c0.1 0 0.22 0 0.339 0 102.654 0 196.798-36.439 270.202-97.087l-0.717 0.575-599.979-599.979c-60.092 72.921-96.532 167.288-96.532 270.165 0 235.453 190.872 426.325 426.325 426.325 0.127 0 0.254 0 0.381 0h-0.020zM512 21.333c-0.1 0-0.22 0-0.339 0-102.654 0-196.798 36.439-270.202 97.087l0.717-0.575 599.979 599.979c60.092-72.921 96.532-167.288 96.532-270.165 0-235.453-190.872-426.325-426.325-426.325-0.127 0-0.254 0-0.381 0h0.020z" />
<glyph unicode="&#xe924;" glyph-name="band-aid" d="M384 533.333c0 23.564 19.103 42.667 42.667 42.667s42.667-19.103 42.667-42.667c0-23.564-19.103-42.667-42.667-42.667v0c-23.564 0-42.667 19.103-42.667 42.667v0zM597.333 490.667c23.564 0 42.667 19.103 42.667 42.667s-19.103 42.667-42.667 42.667c-23.564 0-42.667-19.103-42.667-42.667v0c0-23.564 19.103-42.667 42.667-42.667v0zM426.667 405.333c-23.564 0-42.667-19.103-42.667-42.667s19.103-42.667 42.667-42.667c23.564 0 42.667 19.103 42.667 42.667v0c0 23.564-19.103 42.667-42.667 42.667v0zM597.333 320c23.564 0 42.667 19.103 42.667 42.667s-19.103 42.667-42.667 42.667c-23.564 0-42.667-19.103-42.667-42.667v0c0-23.564 19.103-42.667 42.667-42.667v0zM1024 533.333v-170.667c-0.146-117.762-95.571-213.188-213.319-213.333h-597.348c-117.762 0.146-213.188 95.571-213.333 213.319v170.681c0.146 117.762 95.571 213.188 213.319 213.333h597.348c117.762-0.146 213.188-95.571 213.333-213.319v-0.014zM298.667 661.333v-426.667h426.667v426.667zM213.333 234.667v426.667c-70.692 0-128-57.308-128-128v0-170.667c0-70.692 57.308-128 128-128v0zM938.667 533.333c0 70.692-57.308 128-128 128v0-426.667c70.692 0 128 57.308 128 128v0z" />
<glyph unicode="&#xe925;" glyph-name="bank" d="M1024-21.333c0-23.564-19.103-42.667-42.667-42.667v0h-938.667c-23.564 0-42.667 19.103-42.667 42.667s19.103 42.667 42.667 42.667v0h938.667c23.564 0 42.667-19.103 42.667-42.667v0zM12.416 595.115c-7.861 14.303-12.485 31.344-12.485 49.465 0 22.486 7.12 43.31 19.23 60.338l-0.217-0.321c18.36 26.693 42.242 48.283 70.114 63.474l1.054 0.526 320.043 166.571c29.56 15.687 64.627 24.897 101.845 24.897s72.286-9.21 103.047-25.476l-1.201 0.579 320-166.699c28.926-15.717 52.808-37.307 70.727-63.322l0.441-0.678c11.892-16.708 19.013-37.531 19.013-60.017 0-18.121-4.624-35.162-12.757-50.008l0.272 0.543c-19.829-36.952-58.197-61.656-102.335-61.656-0.263 0-0.526 0.001-0.788 0.003h-12.419v-341.333h42.667c23.564 0 42.667-19.103 42.667-42.667s-19.103-42.667-42.667-42.667v0h-853.333c-23.564 0-42.667 19.103-42.667 42.667s19.103 42.667 42.667 42.667v0h42.667v341.333h-12.459c-0.215-0.001-0.469-0.002-0.723-0.002-44.189 0-82.594 24.76-102.099 61.164l-0.303 0.62zM213.333 192h128v341.333h-128zM426.667 533.333v-341.333h170.667v341.333zM810.667 533.333h-128v-341.333h128zM88.021 634.667c5.286-9.606 15.341-16.006 26.891-16.006 0.221 0 0.442 0.002 0.662 0.007l-0.033-0.001h792.917c0.187-0.004 0.408-0.006 0.629-0.006 11.55 0 21.605 6.401 26.811 15.848l0.080 0.158c1.717 2.826 2.733 6.243 2.733 9.897 0 4.304-1.41 8.279-3.794 11.488l0.037-0.052c-10.424 15.347-24.013 27.777-39.899 36.564l-0.592 0.3-320 166.699c-18.121 9.598-39.613 15.233-62.421 15.233s-44.3-5.635-63.16-15.589l0.739 0.355-320-166.699c-16.47-9.115-30.056-21.556-40.233-36.505l-0.258-0.402c-2.367-3.166-3.79-7.158-3.79-11.482 0-3.618 0.996-7.003 2.73-9.897l-0.049 0.088z" />
<glyph unicode="&#xe926;" glyph-name="barber-shop" d="M504.661 257.621c-52.351 70.602-104.391 151.127-151.298 234.914l-5.929 11.528c64.939 127.019 121.899 277.205 121.899 413.269 0 23.564-19.103 42.667-42.667 42.667s-42.667-19.103-42.667-42.667v0c-6.593-116.73-37.311-224.879-87.212-321.513l2.092 4.457c-47.935 92.155-78.794 200.284-85.447 314.91l-0.1 2.146c0 23.564-19.103 42.667-42.667 42.667s-42.667-19.103-42.667-42.667v0c0-135.424 57.259-285.867 122.368-413.227-52.377-95.005-104.569-175.56-161.726-252.195l4.072 5.709c-55.552-28.749-92.864-85.785-92.864-151.535 0-93.927 76.143-170.069 170.069-170.069 51.35 0 97.384 22.757 128.567 58.737l0.18 0.212c31.349-36.062 77.296-58.73 128.538-58.73 93.903 0 170.027 76.124 170.027 170.027 0 65.627-37.181 122.57-91.628 150.913l-0.942 0.446zM170.667 21.333c-47.128 0-85.333 38.205-85.333 85.333s38.205 85.333 85.333 85.333c47.128 0 85.333-38.205 85.333-85.333v0c0-47.128-38.205-85.333-85.333-85.333v0zM208.341 272.853c24.96 36.011 57.045 84.949 90.539 142.592 33.451-57.6 65.451-106.667 90.325-142.549-36.396-8.557-67.399-27.854-90.36-54.318l-0.179-0.21c-23.101 26.611-54.021 45.883-89.168 54.253l-1.157 0.233zM426.667 21.333c-47.128 0-85.333 38.205-85.333 85.333s38.205 85.333 85.333 85.333c47.128 0 85.333-38.205 85.333-85.333v0c0-47.128-38.205-85.333-85.333-85.333v0zM768 704v-85.333h213.333c23.564 0 42.667-19.103 42.667-42.667s-19.103-42.667-42.667-42.667v0h-213.333v-85.333h213.333c23.564 0 42.667-19.103 42.667-42.667s-19.103-42.667-42.667-42.667v0h-213.333v-85.333h213.333c23.564 0 42.667-19.103 42.667-42.667s-19.103-42.667-42.667-42.667v0h-213.333v-213.333c0-23.564-19.103-42.667-42.667-42.667s-42.667 19.103-42.667 42.667v0 768c0.146 117.762 95.571 213.188 213.319 213.333h85.348c23.564 0 42.667-19.103 42.667-42.667s-19.103-42.667-42.667-42.667v0h-85.333c-55.186-0.236-102.107-35.359-119.868-84.442l-0.282-0.891h205.483c23.564 0 42.667-19.103 42.667-42.667s-19.103-42.667-42.667-42.667v0z" />
<glyph unicode="&#xe927;" glyph-name="baseball" d="M512 960c-282.77 0-512-229.23-512-512s229.23-512 512-512c282.77 0 512 229.23 512 512v0c-0.316 282.643-229.358 511.685-511.97 512h-0.030zM848.171 186.197c-35.949 30.172-65.23 66.994-86.19 108.717l-0.892 1.96 65.408 26.155c15.869 6.462 26.852 21.767 26.852 39.637 0 23.572-19.109 42.681-42.681 42.681-5.702 0-11.142-1.118-16.115-3.147l0.285 0.103-61.653-24.661c-4.996 21.154-7.86 45.442-7.86 70.4s2.864 49.246 8.282 72.554l-0.422-2.154 61.653-24.661c4.687-1.926 10.128-3.044 15.829-3.044 23.572 0 42.681 19.109 42.681 42.681 0 17.87-10.983 33.176-26.567 39.534l-0.285 0.103-65.408 26.155c21.853 43.683 51.134 80.505 86.558 110.249l0.525 0.429c56.416-71.334 90.498-162.588 90.498-261.803s-34.082-190.468-91.177-262.693l0.679 0.89zM175.829 709.803c35.949-30.172 65.23-66.994 86.19-108.717l0.892-1.96-65.408-26.155c-15.869-6.462-26.852-21.767-26.852-39.637 0-23.572 19.109-42.681 42.681-42.681 5.702 0 11.142 1.118 16.115 3.147l-0.285-0.103 61.653 24.661c4.814-21.074 7.664-45.332 7.85-70.224l0.001-0.133c-0.187-25.025-3.037-49.283-8.281-72.636l0.43 2.278-61.653 24.661c-4.687 1.926-10.128 3.044-15.829 3.044-23.572 0-42.681-19.109-42.681-42.681 0-17.87 10.983-33.176 26.567-39.534l0.285-0.103 65.408-26.155c-21.853-43.683-51.134-80.505-86.558-110.249l-0.525-0.429c-56.416 71.334-90.498 162.588-90.498 261.803s34.082 190.468 91.177 262.693l-0.679-0.89zM234.965 124.16c44.528 38.516 80.623 85.461 106.033 138.5l1.103 2.556 68.736-27.52c4.687-1.926 10.128-3.044 15.829-3.044 23.572 0 42.681 19.109 42.681 42.681 0 17.87-10.983 33.176-26.567 39.534l-0.285 0.103-71.083 28.416c7.962 30.798 12.55 66.161 12.587 102.59v0.023c-0.056 36.384-4.643 71.672-13.226 105.362l0.64-2.962 71.083 28.416c15.869 6.462 26.852 21.767 26.852 39.637 0 23.572-19.109 42.681-42.681 42.681-5.702 0-11.142-1.118-16.115-3.147l0.285 0.103-68.736-27.52c-26.489 55.678-62.588 102.696-106.603 140.818l-0.533 0.451c73.893 63.896 170.918 102.822 277.035 102.822s203.141-38.926 277.574-103.279l-0.539 0.456c-44.528-38.516-80.623-85.461-106.033-138.5l-1.103-2.556-68.736 27.52c-4.687 1.926-10.128 3.044-15.829 3.044-23.572 0-42.681-19.109-42.681-42.681 0-17.87 10.983-33.176 26.567-39.534l0.285-0.103 71.296-28.629c-7.996-30.807-12.587-66.174-12.587-102.613s4.59-71.806 13.225-105.554l-0.638 2.94-71.083-28.416c-15.869-6.462-26.852-21.767-26.852-39.637 0-23.572 19.109-42.681 42.681-42.681 5.702 0 11.142 1.118 16.115 3.147l-0.285-0.103 68.736 27.52c26.512-55.594 62.607-102.539 106.599-140.602l0.537-0.454c-73.893-63.896-170.918-102.822-277.035-102.822s-203.141 38.926-277.574 103.279l0.539-0.456z" />
<glyph unicode="&#xe928;" glyph-name="basketball" d="M874.923 87.296c92.115 92.403 149.069 219.902 149.069 360.704s-56.955 268.301-149.082 360.717l0.013-0.013c-0.384 0.427-0.469 0.939-0.896 1.323s-0.896 0.512-1.323 0.896c-92.401 92.102-219.891 149.048-360.683 149.048s-268.283-56.946-360.697-149.062l0.014 0.014c-0.427-0.384-0.981-0.512-1.365-0.939s-0.555-0.939-0.939-1.365c-92.089-92.398-149.027-219.88-149.027-360.661s56.937-268.263 149.040-360.675l-0.014 0.014c0.384-0.427 0.512-0.981 0.939-1.365s0.939-0.555 1.365-0.939c92.401-92.102 219.891-149.048 360.683-149.048s268.283 56.946 360.697 149.062l-0.014-0.014c0.427 0.384 0.939 0.469 1.323 0.896s0.64 0.981 0.896 1.408zM87.765 403.029c86.431-9.185 163.564-43.102 225.787-94.444l-0.72 0.577-130.987-130.987c-50.723 61.41-84.688 138.381-93.912 222.789l-0.168 1.893zM181.632 717.995l270.037-269.995-78.379-78.379c-77.369 65.892-175.808 109.191-283.948 118.649l-1.918 0.135c8.537 88.051 42.769 166.795 95.002 230.144l-0.581-0.726zM936.021 493.312c-86.428 9.206-163.556 43.12-225.79 94.446l0.723-0.579 130.987 130.987c50.858-61.481 84.906-138.578 94.126-223.133l0.167-1.891zM650.624 647.339c-50.764 61.502-84.682 138.635-93.706 223.21l-0.161 1.857c86.281-9.327 163.256-43.22 225.41-94.448l-0.727 0.582zM590.336 586.667l-78.336-78.336-269.824 269.824c62.62 51.668 141.364 85.914 227.678 94.327l1.741 0.137c9.598-110.079 52.878-208.542 119.341-286.674l-0.599 0.722zM373.163 248.832c50.764-61.502 84.682-138.635 93.706-223.21l0.161-1.857c-86.301 9.392-163.273 43.357-225.402 94.657l0.719-0.577zM433.621 309.291l78.379 78.379 269.824-269.824c-62.611-51.686-141.36-85.935-227.682-94.327l-1.737-0.137c-9.584 110.074-52.884 208.529-119.38 286.627l0.596-0.718zM572.331 448l78.336 78.336c77.388-65.848 175.819-109.125 283.943-118.605l1.924-0.136c-8.551-88.055-42.796-166.799-95.044-230.143l0.58 0.724z" />
<glyph unicode="&#xe929;" glyph-name="bell" d="M962.347 377.088l-81.067 291.669c-48.191 169.272-201.441 291.146-383.157 291.146-189.046 0-347.284-131.905-387.7-308.7l-0.514-2.67-62.763-282.24c-3.231-13.912-5.083-29.886-5.083-46.293 0-117.821 95.513-213.333 213.333-213.333 0.002 0 0.004 0 0.006 0h47.53c20.459-98.177 106.272-170.881 209.067-170.881s188.608 72.703 208.824 169.494l0.242 1.387h35.755c0.004 0 0.010 0 0.015 0 117.821 0 213.333 95.513 213.333 213.333 0 20.319-2.841 39.975-8.147 58.592l0.367-1.504zM512 21.333c-55.186 0.236-102.107 35.359-119.868 84.442l-0.282 0.891h240.299c-18.042-49.975-64.964-85.097-120.121-85.333h-0.029zM858.709 242.56c-23.427-30.846-60.126-50.561-101.43-50.561-0.176 0-0.352 0-0.528 0.001h-501.349c-70.683 0.012-127.978 57.315-127.978 128 0 9.844 1.111 19.429 3.215 28.635l-0.165-0.859 62.72 282.283c32.144 140.963 156.431 244.569 304.917 244.569 142.733 0 263.107-95.734 300.412-226.495l0.537-2.203 81.067-291.669c3.024-10.327 4.764-22.191 4.764-34.462 0-29.192-9.848-56.084-26.402-77.535l0.219 0.295z" />
<glyph unicode="&#xe92a;" glyph-name="bell-ring" d="M889.984 305.877l-160.939-262.613c-35.471-57.53-94.92-97.348-164.062-105.583l-1.058-0.103c-8.018-1.005-17.298-1.579-26.712-1.579-0.029 0-0.058 0-0.088 0h0.005c-47.98 0.068-92.383 15.32-128.679 41.207l0.679-0.46c-33.37-25.218-75.555-40.393-121.285-40.393-111.718 0-202.283 90.565-202.283 202.283 0 44.41 14.311 85.477 38.573 118.841l-0.403-0.582-56.107 56.021c-40.641 40.644-65.778 96.791-65.778 158.809 0 80.33 42.172 150.809 105.583 190.508l0.941 0.55 246.059 152.149c57.671 37.469 128.212 59.749 203.957 59.749 89.913 0 172.494-31.394 237.379-83.819l-0.717 0.561 70.784 70.784c7.769 8.036 18.647 13.026 30.69 13.026 23.564 0 42.667-19.103 42.667-42.667 0-12.043-4.989-22.92-13.014-30.678l-70.711-70.753c51.983-64.685 83.433-147.798 83.433-238.257 0-68.708-18.144-133.178-49.902-188.881l0.987 1.879zM344.107 36.395l-158.677 158.72c-9.289-16.316-14.765-35.848-14.765-56.659 0-32.315 13.203-61.546 34.508-82.593l0.012-0.011c21.585-20.534 50.853-33.166 83.071-33.166 20.417 0 39.648 5.073 56.504 14.026l-0.653-0.316zM767.403 701.995c-53.273 53.772-127.136 87.065-208.775 87.065-59.021 0-113.978-17.401-160.021-47.353l1.137 0.693-246.485-152.149c-39.909-24.965-66.062-68.677-66.062-118.497 0-38.469 15.593-73.296 40.803-98.506l311.040-311.083c25.215-25.243 60.064-40.858 98.56-40.858 49.984 0 93.819 26.325 118.398 65.866l0.343 0.592 160.213 261.333c23.519 41.482 37.38 91.112 37.38 143.979 0 81.654-33.065 155.585-86.536 209.134l0.004-0.004zM821.973-64c-0.023 0-0.050 0-0.078 0-23.564 0-42.667 19.103-42.667 42.667 0 14.113 6.852 26.625 17.41 34.392l0.118 0.083c73.006 55.298 124.362 135.855 141.104 228.455l0.336 2.244c4.116 19.605 21.264 34.115 41.801 34.115 23.564 0 42.667-19.103 42.667-42.667 0-3.475-0.415-6.853-1.199-10.087l0.060 0.292c-22.066-115.644-85.178-213.685-173.284-280.475l-1.138-0.827c-6.951-5.117-15.682-8.19-25.13-8.192v0zM42.667 715.136c-23.482 0.108-42.476 19.169-42.476 42.666 0 9.541 3.132 18.351 8.424 25.458l-0.081-0.113c68.524 90.877 168.581 154.807 283.644 175.584l2.777 0.416c2.565 0.548 5.513 0.862 8.533 0.862 23.569 0 42.675-19.106 42.675-42.675 0-20.548-14.523-37.704-33.864-41.765l-0.278-0.049c-96.804-16.395-179.143-68.565-234.542-142.162l-0.679-0.942c-7.828-10.492-20.189-17.226-34.125-17.28h-0.009z" />
<glyph unicode="&#xe92b;" glyph-name="bell-school" d="M426.667 618.667c47.128 0 85.333-38.205 85.333-85.333s-38.205-85.333-85.333-85.333c-47.128 0-85.333 38.205-85.333 85.333v0c0 47.128 38.205 85.333 85.333 85.333v0zM1024 533.333c-0.921-293.431-209.272-537.933-486.059-594.614l-3.925-0.672c-6.801-1.304-14.624-2.049-22.621-2.049-30.985 0-59.356 11.196-81.286 29.764l0.184-0.152c-28.375 23.746-46.293 59.175-46.293 98.79 0 0.009 0 0.019 0 0.028v-0.001 44.416c-216.691 22.27-384.282 203.842-384.282 424.556 0 235.641 191.025 426.667 426.667 426.667 149.292 0 280.675-76.676 356.918-192.796l0.996-1.616c4.318-6.569 6.887-14.622 6.887-23.275 0-23.621-19.149-42.77-42.77-42.77-14.968 0-28.141 7.689-35.783 19.333l-0.1 0.162c-61.788 94.208-166.905 155.563-286.352 155.563-188.513 0-341.333-152.82-341.333-341.333s152.82-341.333 341.333-341.333c119.447 0 224.564 61.355 285.555 154.268l0.798 1.294c7.73 11.754 20.859 19.406 35.776 19.406 23.572 0 42.681-19.109 42.681-42.681 0-8.655-2.576-16.709-7.004-23.435l0.099 0.161c-69.406-105.87-182.444-178.221-312.953-191.51l-1.799-0.148v-44.928c0.010-13.369 6.070-25.321 15.59-33.267l0.069-0.056c7.034-6.071 16.265-9.769 26.36-9.769 2.613 0 5.168 0.248 7.643 0.721l-0.253-0.040c199.041 40.475 354.767 190.254 403.286 382.67l0.767 3.591c-8.044-1.85-17.288-2.921-26.779-2.944h-0.016c-70.692 0-128 57.308-128 128s57.308 128 128 128c70.692 0 128-57.308 128-128v0zM938.667 533.333c0 23.564-19.103 42.667-42.667 42.667s-42.667-19.103-42.667-42.667c0-23.564 19.103-42.667 42.667-42.667v0c23.564 0 42.667 19.103 42.667 42.667v0z" />
<glyph unicode="&#xe92c;" glyph-name="billiard" d="M512-64c-282.77 0-512 229.23-512 512s229.23 512 512 512c282.77 0 512-229.23 512-512v0c-0.316-282.643-229.358-511.685-511.97-512h-0.030zM512 874.667c-235.641 0-426.667-191.025-426.667-426.667s191.025-426.667 426.667-426.667c235.641 0 426.667 191.025 426.667 426.667v0c-0.267 235.534-191.133 426.4-426.641 426.667h-0.025zM512 106.667c-188.513 0-341.333 152.82-341.333 341.333s152.82 341.333 341.333 341.333c188.513 0 341.333-152.82 341.333-341.333v0c-0.218-188.425-152.908-341.115-341.312-341.333h-0.021zM512 704c-141.385 0-256-114.615-256-256s114.615-256 256-256c141.385 0 256 114.615 256 256v0c-0.146 141.326-114.674 255.854-255.986 256h-0.014zM505.899 298.027l128 213.333c3.827 6.271 6.093 13.857 6.093 21.973 0 23.561-19.098 42.662-42.658 42.667h-170.667c-23.564 0-42.667-19.103-42.667-42.667s19.103-42.667 42.667-42.667v0h95.317l-89.216-148.693c-4.078-6.423-6.498-14.245-6.498-22.634 0-23.564 19.103-42.667 42.667-42.667 15.718 0 29.45 8.499 36.853 21.152l0.109 0.202z" />
<glyph unicode="&#xe92d;" glyph-name="bold" d="M766.037 505.045c28.012 44.588 44.629 98.796 44.629 156.886 0 164.619-133.45 298.069-298.069 298.069-0.21 0-0.42 0-0.629-0.001h-298.635c-47.128 0-85.333-38.205-85.333-85.333v0-853.333c0-47.128 38.205-85.333 85.333-85.333v0h426.667c0.094 0 0.205 0 0.317 0 164.808 0 298.411 133.603 298.411 298.411 0 119.18-69.867 222.042-170.876 269.862l-1.814 0.772zM298.667 789.333h213.333c70.692 0 128-57.308 128-128s-57.308-128-128-128v0h-213.333zM640 106.667h-341.333v256h341.333c70.692 0 128-57.308 128-128s-57.308-128-128-128v0z" />
<glyph unicode="&#xe92e;" glyph-name="book" d="M725.333 960h-426.667c-117.762-0.146-213.188-95.571-213.333-213.319v-640.014c0-94.257 76.41-170.667 170.667-170.667v0h469.333c117.762 0.146 213.188 95.571 213.333 213.319v597.347c-0.146 117.762-95.571 213.188-213.319 213.333h-0.014zM853.333 746.667v-469.333h-512v597.333h384c70.692 0 128-57.308 128-128v0zM256 867.328v-589.995c-0.044 0-0.096 0-0.148 0-31.375 0-60.763-8.509-85.982-23.345l0.796 0.433v492.245c0.008 55.391 35.199 102.561 84.442 120.38l0.891 0.282zM725.333 21.333h-469.333c-47.128 0-85.333 38.205-85.333 85.333s38.205 85.333 85.333 85.333v0h597.333v-42.667c0-70.692-57.308-128-128-128v0z" />
<glyph unicode="&#xe92f;" glyph-name="book-alt" d="M947.2 867.712c-36.701 30.852-84.476 49.595-136.628 49.595-13.542 0-26.788-1.264-39.628-3.68l1.323 0.207-163.072-29.611c-38.98-7.333-72.464-27.042-97.038-54.816l-0.157-0.181c-24.793 28.001-58.373 47.72-96.394 54.833l-1.057 0.164-162.816 29.611c-11.546 2.216-24.825 3.484-38.4 3.484-117.816 0-213.325-95.504-213.333-213.318v-460.502c0.005-104.317 74.884-191.145 173.825-209.672l1.322-0.206 268.203-48.768c20.641-3.935 44.383-6.186 68.651-6.186s48.010 2.251 71.029 6.556l-2.378-0.37 268.416 48.768c100.163 18.822 174.933 105.603 174.933 209.849 0 0.010 0 0.020 0 0.030v-0.002 460.501c0 0.039 0 0.086 0 0.132 0 65.624-29.732 124.305-76.461 163.304l-0.339 0.275zM469.333 67.072c-3.584 0.512-7.168 1.109-10.752 1.749l-268.16 48.725c-60.16 11.24-105.088 63.34-105.088 125.933 0 0.007 0 0.014 0 0.020v-0.001 460.501c0 70.692 57.308 128 128 128v0c8.157-0.020 16.123-0.78 23.852-2.216l-0.812 0.125 162.987-29.867c40.003-7.517 69.88-42.133 69.973-83.745v-0.010zM938.667 243.499c0-0.006 0-0.013 0-0.019 0-62.593-44.928-114.693-104.295-125.809l-0.793-0.123-268.16-48.725c-3.584-0.64-7.168-1.237-10.752-1.749v649.216c0 0.004 0 0.008 0 0.013 0 41.729 29.952 76.462 69.53 83.873l0.529 0.082 163.029 29.867c6.889 1.315 14.813 2.067 22.912 2.067 70.692 0 128-57.308 128-128 0-0.067 0-0.134 0-0.2v0.010z" />
<glyph unicode="&#xe930;" glyph-name="bookmark" d="M859.179-64c-33.185 0.094-63.174 13.704-84.765 35.612l-0.014 0.014-262.4 260.864-262.4-261.035c-21.678-21.985-51.791-35.604-85.085-35.604-16.972 0-33.118 3.539-47.739 9.92l0.77-0.299c-44.272 18.154-74.885 60.92-74.885 110.837 0 0.394 0.002 0.788 0.006 1.181v-0.060 689.237c0 117.821 95.513 213.333 213.333 213.333v0h512c117.821 0 213.333-95.513 213.333-213.333v0-689.237c0.004-0.353 0.006-0.771 0.006-1.189 0-49.852-30.535-92.572-73.921-110.478l-0.794-0.29c-13.938-5.989-30.161-9.472-47.198-9.472-0.087 0-0.174 0-0.261 0h0.014zM256 874.667c-70.692 0-128-57.308-128-128v0-689.237c0-0.023 0-0.051 0-0.078 0-19.865 16.103-35.968 35.968-35.968 9.888 0 18.844 3.99 25.346 10.448l-0.002-0.002 292.821 291.029c7.712 7.668 18.343 12.407 30.080 12.407s22.368-4.74 30.082-12.409l-0.002 0.002 292.48-290.944c6.5-6.456 15.456-10.446 25.344-10.446 19.865 0 35.968 16.103 35.968 35.968 0 0.027 0 0.055 0 0.082v-0.004 689.152c0 70.692-57.308 128-128 128v0z" />
<glyph unicode="&#xe931;" glyph-name="bowling" d="M682.667 277.333c0-23.564-19.103-42.667-42.667-42.667s-42.667 19.103-42.667 42.667c0 23.564 19.103 42.667 42.667 42.667v0c23.564 0 42.667-19.103 42.667-42.667v0zM810.667 320c-23.564 0-42.667-19.103-42.667-42.667s19.103-42.667 42.667-42.667c23.564 0 42.667 19.103 42.667 42.667v0c0 23.564-19.103 42.667-42.667 42.667v0zM725.333 448c-23.564 0-42.667-19.103-42.667-42.667s19.103-42.667 42.667-42.667c23.564 0 42.667 19.103 42.667 42.667v0c0 23.564-19.103 42.667-42.667 42.667v0zM1024 277.333c0-0.128 0-0.28 0-0.432 0-188.278-152.629-340.907-340.907-340.907-85.019 0-162.77 31.123-222.48 82.597l0.442-0.372c-30.435-49.532-84.276-82.096-145.731-82.219h-118.631c-0.041 0-0.089 0-0.138 0-67.916 0-126.567 39.671-154.043 97.105l-0.443 1.028c-26.59 57.286-42.101 124.343-42.101 195.023 0 1.937 0.012 3.872 0.035 5.804l-0.003-0.294c5.544 86.951 32.38 166.621 75.299 235.196l-1.23-2.108c27.822 43.020 46.987 94.175 53.756 149.167l0.175 1.745c-5.483 35.098-13.716 66.344-24.747 96.235l1.11-3.435c-9.122 22.689-15.828 49.035-18.903 76.478l-0.126 1.388c0 94.257 76.41 170.667 170.667 170.667s170.667-76.41 170.667-170.667v0c-3.201-28.832-9.908-55.177-19.754-79.933l0.725 2.066c-9.922-26.456-18.154-57.702-23.27-89.986l-0.367-2.814c3.947-45.163 17.824-86.374 39.42-122.43l-0.722 1.3c62.919 74.272 156.252 121.102 260.523 121.102 188.207 0 340.779-152.572 340.779-340.779 0-0.185 0-0.37 0-0.554v0.028zM170.667 789.333c0.683-6.4 9.003-32.939 15.104-52.309 13.542-34.579 23.29-74.697 27.412-116.467l0.151-1.89h85.333c4.273 43.661 14.020 83.778 28.625 121.475l-1.063-3.118c5.019 13.865 10.214 31.752 14.433 50.012l0.671 3.45c-0.327 46.881-38.406 84.759-85.333 84.759-47.129 0-85.335-38.206-85.335-85.335 0-0.202 0.001-0.405 0.002-0.607v0.031zM392.533 70.144c21.583 46.761 34.171 101.472 34.171 159.124 0 1.898-0.014 3.793-0.041 5.684l0.003-0.286c-6.129 72.532-29.337 138.577-65.552 195.543l1.040-1.751c-16.368 29.093-32.454 63.659-45.995 99.475l-1.792 5.4h-116.736c-15.333-41.216-31.419-75.781-49.83-108.876l2.043 4.001c-35.175-55.215-58.383-121.26-64.403-192.204l-0.109-1.588c-0.024-1.596-0.037-3.481-0.037-5.369 0-57.676 12.587-112.413 35.164-161.613l-0.994 2.416c14.019-29.068 43.26-48.768 77.102-48.768 0.044 0 0.087 0 0.131 0h118.606c0.031 0 0.068 0 0.104 0 33.859 0 63.112 19.72 76.901 48.3l0.222 0.51zM938.667 277.333c0 0.103 0 0.224 0 0.346 0 141.173-114.443 255.616-255.616 255.616-91.329 0-171.471-47.896-216.677-119.941l-0.624-1.066c27.354-51.55 44.228-112.396 46.235-176.989l0.016-0.633c0-0.029 0-0.065 0-0.1 0-46.397-6.355-91.309-18.241-133.915l0.833 3.497c46.896-50.967 113.918-82.789 188.373-82.789 141.22 0 255.701 114.481 255.701 255.701 0 0.096 0 0.191 0 0.287v-0.015z" />
<glyph unicode="&#xe932;" glyph-name="box" d="M384 362.667h256c23.564 0 42.667 19.103 42.667 42.667s-19.103 42.667-42.667 42.667v0h-256c-23.564 0-42.667-19.103-42.667-42.667s19.103-42.667 42.667-42.667v0zM810.667 960h-597.333c-117.762-0.146-213.188-95.571-213.333-213.319v-42.681c0.027-37.819 16.451-71.797 42.547-95.212l0.119-0.105v-459.349c0.146-117.762 95.571-213.188 213.319-213.333h512.014c117.762 0.146 213.188 95.571 213.333 213.319v459.363c26.215 23.521 42.64 57.498 42.667 95.313v42.672c-0.146 117.762-95.571 213.188-213.319 213.333h-0.014zM85.333 746.667c0 70.692 57.308 128 128 128v0h597.333c70.692 0 128-57.308 128-128v0-42.667c0-23.564-19.103-42.667-42.667-42.667v0h-768c-23.564 0-42.667 19.103-42.667 42.667v0zM896 149.333c0-70.692-57.308-128-128-128v0h-512c-70.692 0-128 57.308-128 128v0 426.667h768z" />
<glyph unicode="&#xe933;" glyph-name="box-alt" d="M810.667 960h-597.333c-117.762-0.146-213.188-95.571-213.333-213.319v-597.347c0.146-117.762 95.571-213.188 213.319-213.333h597.348c117.762 0.146 213.188 95.571 213.333 213.319v597.347c-0.146 117.762-95.571 213.188-213.319 213.333h-0.014zM938.667 746.667h-298.667v128h170.667c70.692 0 128-57.308 128-128v0zM469.333 874.667h85.333v-213.333c0-23.564-19.103-42.667-42.667-42.667s-42.667 19.103-42.667 42.667v0zM213.333 874.667h170.667v-128h-298.667c0 70.692 57.308 128 128 128v0zM810.667 21.333h-597.333c-70.692 0-128 57.308-128 128v0 512h298.667c0-70.692 57.308-128 128-128s128 57.308 128 128v0h298.667v-512c0-70.692-57.308-128-128-128v0zM853.333 149.333c0-23.564-19.103-42.667-42.667-42.667v0h-128c-23.564 0-42.667 19.103-42.667 42.667s19.103 42.667 42.667 42.667v0h128c23.564 0 42.667-19.103 42.667-42.667v0z" />
<glyph unicode="&#xe934;" glyph-name="briefcase" d="M810.667 789.333h-46.933c-20.683 98.008-106.386 170.533-209.052 170.667h-85.348c-102.681-0.134-188.384-72.659-208.82-169.271l-0.247-1.396h-46.933c-117.762-0.146-213.188-95.571-213.333-213.319v-426.681c0.146-117.762 95.571-213.188 213.319-213.333h597.348c117.762 0.146 213.188 95.571 213.333 213.319v426.681c-0.146 117.762-95.571 213.188-213.319 213.333h-0.014zM469.333 874.667h85.333c55.186-0.236 102.107-35.359 119.868-84.442l0.282-0.891h-325.632c18.042 49.975 64.964 85.097 120.121 85.333h0.029zM213.333 704h597.333c70.692 0 128-57.308 128-128v0-128h-853.333v128c0 70.692 57.308 128 128 128v0zM810.667 21.333h-597.333c-70.692 0-128 57.308-128 128v0 213.333h384v-42.667c0-23.564 19.103-42.667 42.667-42.667s42.667 19.103 42.667 42.667v0 42.667h384v-213.333c0-70.692-57.308-128-128-128v0z" />
<glyph unicode="&#xe935;" glyph-name="broom" d="M1011.84 862.507c-7.816 7.788-18.599 12.604-30.507 12.604s-22.691-4.815-30.508-12.605l-203.263-203.263-13.653 13.355c-38.481 37.611-91.182 60.816-149.302 60.816-46.946 0-90.356-15.14-125.614-40.804l0.613 0.425c-55.647-42.349-119.893-77.426-189.093-102.056l-4.955-1.538-88.491-25.941c-58.884-17.665-106.14-58.266-132.26-111.169l-0.561-1.258c-13.345-26.986-21.152-58.756-21.152-92.35 0-28.51 5.623-55.706 15.82-80.54l-0.514 1.413c84.518-203.548 281.7-344.087 511.706-344.087 1.783 0 3.565 0.008 5.344 0.025l-0.272-0.002h39.424c9.232 0.006 17.785 2.912 24.798 7.856l-0.136-0.091c148.809 98.171 253.929 252.245 285.716 431.65l0.578 3.934c1.643 9.976 2.582 21.473 2.582 33.189 0 60.108-24.715 114.443-64.538 153.397l-0.039 0.038-34.133 33.451 202.539 202.539c7.75 7.809 12.54 18.567 12.54 30.442 0 11.94-4.841 22.748-12.668 30.571v0zM580.608 21.973h-25.6c-0.197 0-0.431 0-0.664 0-66.051 0-129 13.282-186.322 37.321l3.178-1.182 0.469 0.256c75.788 38.566 138.261 93.512 184.569 160.491l1.074 1.643 22.101 32.469c4.686 6.797 7.485 15.21 7.485 24.277 0 23.81-19.302 43.112-43.112 43.112-14.743 0-27.758-7.401-35.532-18.689l-0.095-0.145-22.101-32.469c-39.138-56.577-90.709-101.878-150.954-132.608l-2.305-1.067-53.376-26.88c-43.042 30.501-79.525 66.807-109.269 108.276l-0.939 1.377c72.871 24.951 135.288 63.818 186.884 113.791l-0.132-0.127c8.013 7.84 12.98 18.764 12.98 30.848 0 23.829-19.317 43.146-43.146 43.146-11.745 0-22.393-4.693-30.173-12.305l0.008 0.008c-46.326-44.928-103.367-79.077-166.908-98.234l-2.905-0.753c-2.603 5.76-5.419 11.392-7.765 17.323-5.791 13.831-9.155 29.902-9.155 46.76 0 19.969 4.721 38.835 13.107 55.544l-0.325-0.714c16.007 32.41 44.29 56.712 78.617 67.091l0.913 0.237 88.448 25.941c55.786 18.159 104.158 41.124 148.879 69.347l-2.703-1.593 337.707-329.045c-46.268-90.825-111.564-165.94-191.062-222.352l-1.877-1.264zM820.395 392.448c-3.857-23.465-8.443-43.426-14.118-62.923l0.934 3.745-297.429 289.664c20.769 15.077 46.765 24.127 74.875 24.149h0.005c0.048 0 0.104 0 0.161 0 34.564 0 65.899-13.824 88.778-36.245l109.589-107.030c23.896-23.344 38.715-55.89 38.715-91.898 0-6.93-0.549-13.732-1.606-20.364l0.096 0.731z" />
<glyph unicode="&#xe936;" glyph-name="browser" d="M810.667 917.333h-597.333c-117.762-0.146-213.188-95.571-213.333-213.319v-512.014c0.146-117.762 95.571-213.188 213.319-213.333h597.348c117.762 0.146 213.188 95.571 213.333 213.319v512.014c-0.146 117.762-95.571 213.188-213.319 213.333h-0.014zM213.333 832h597.333c70.692 0 128-57.308 128-128v0-42.667h-853.333v42.667c0 70.692 57.308 128 128 128v0zM810.667 64h-597.333c-70.692 0-128 57.308-128 128v0 384h853.333v-384c0-70.692-57.308-128-128-128v0zM810.667 405.333c0-23.564-19.103-42.667-42.667-42.667v0h-512c-23.564 0-42.667 19.103-42.667 42.667s19.103 42.667 42.667 42.667v0h512c23.564 0 42.667-19.103 42.667-42.667v0zM640 234.667c0-23.564-19.103-42.667-42.667-42.667v0h-341.333c-23.564 0-42.667 19.103-42.667 42.667s19.103 42.667 42.667 42.667v0h341.333c23.564 0 42.667-19.103 42.667-42.667v0zM128 746.667c0 23.564 19.103 42.667 42.667 42.667s42.667-19.103 42.667-42.667c0-23.564-19.103-42.667-42.667-42.667v0c-23.564 0-42.667 19.103-42.667 42.667v0zM256 746.667c0 23.564 19.103 42.667 42.667 42.667s42.667-19.103 42.667-42.667c0-23.564-19.103-42.667-42.667-42.667v0c-23.564 0-42.667 19.103-42.667 42.667v0zM384 746.667c0 23.564 19.103 42.667 42.667 42.667s42.667-19.103 42.667-42.667c0-23.564-19.103-42.667-42.667-42.667v0c-23.564 0-42.667 19.103-42.667 42.667v0z" />
<glyph unicode="&#xe937;" glyph-name="brush" d="M810.667 960h-597.333c-117.762-0.146-213.188-95.571-213.333-213.319v-213.347c0.218-164.861 133.806-298.448 298.646-298.667h85.354v-170.667c0-70.692 57.308-128 128-128s128 57.308 128 128v0 170.667h85.333c164.861 0.218 298.448 133.806 298.667 298.646v213.354c-0.146 117.762-95.571 213.188-213.319 213.333h-0.014zM85.333 746.667c0 70.692 57.308 128 128 128v0h213.333v-42.667c0-23.564 19.103-42.667 42.667-42.667s42.667 19.103 42.667 42.667v0 42.667h85.333v-128c0-23.564 19.103-42.667 42.667-42.667s42.667 19.103 42.667 42.667v0 128h85.333v-213.333c0-23.564 19.103-42.667 42.667-42.667s42.667 19.103 42.667 42.667v0 205.483c49.975-18.042 85.097-64.964 85.333-120.121v-213.362h-853.333zM725.333 320h-128c-23.564 0-42.667-19.103-42.667-42.667v0-213.333c0-23.564-19.103-42.667-42.667-42.667s-42.667 19.103-42.667 42.667v0 213.333c0 23.564-19.103 42.667-42.667 42.667v0h-128c-86.843 0.118-161.515 52.108-194.703 126.643l-0.54 1.357h817.152c-33.728-75.892-108.399-127.882-195.227-128h-0.015z" />
<glyph unicode="&#xe938;" glyph-name="bug" d="M938.667 661.333c47.128 0 85.333 38.205 85.333 85.333v0 170.667c0 23.564-19.103 42.667-42.667 42.667s-42.667-19.103-42.667-42.667v0-170.667h-170.667c-0.768 0-1.365-0.384-2.133-0.427-41.642 101.203-139.479 171.155-253.653 171.155s-212.011-69.952-252.989-169.336l-0.664-1.819c-0.896-0.043-1.664 0.427-2.56 0.427h-170.667v170.667c0 23.564-19.103 42.667-42.667 42.667s-42.667-19.103-42.667-42.667v0-170.667c0-47.128 38.205-85.333 85.333-85.333v0h148.693l-43.221-170.667h-148.139c-23.564 0-42.667-19.103-42.667-42.667s19.103-42.667 42.667-42.667v0h126.507l-6.187-24.448-0.853-5.419c-1.809-13.143-2.892-28.414-2.986-43.918l-0.001-0.114c0.047-34.493 5.078-67.793 14.412-99.243l-0.63 2.475h-87.595c-47.128 0-85.333-38.205-85.333-85.333v0-170.667c0-23.564 19.103-42.667 42.667-42.667s42.667 19.103 42.667 42.667v0 170.667h125.013c62.64-102.958 174.239-170.671 301.653-170.671s239.014 67.714 300.774 169.118l0.879 1.553h125.013v-170.667c0-23.564 19.103-42.667 42.667-42.667s42.667 19.103 42.667 42.667v0 170.667c0 47.128-38.205 85.333-85.333 85.333v0h-87.595c8.749 29.035 13.811 62.406 13.867 96.952v0.030c-0.136 15.584-1.248 30.773-3.279 45.67l0.207-1.851-7.467 29.867h126.933c23.564 0 42.667 19.103 42.667 42.667s-19.103 42.667-42.667 42.667v0h-148.395l-43.051 170.667zM512 64c-147.741 0.17-267.459 119.903-267.605 267.634v0.014c0.064 11.001 0.791 21.764 2.142 32.332l-0.137-1.313 86.613 342.613c26.782 74.45 96.786 126.729 179.001 126.729 81.562 0 151.106-51.451 177.948-123.667l0.427-1.312 87.211-344.363c1.211-9.226 1.937-19.959 2.005-30.848v-0.085c-0.097-147.781-119.835-267.563-267.589-267.733h-0.016z" />
<glyph unicode="&#xe939;" glyph-name="building" d="M298.667 362.667c0-23.564-19.103-42.667-42.667-42.667v0h-42.667c-23.564 0-42.667 19.103-42.667 42.667s19.103 42.667 42.667 42.667v0h42.667c23.564 0 42.667-19.103 42.667-42.667v0zM469.333 405.333h-42.667c-23.564 0-42.667-19.103-42.667-42.667s19.103-42.667 42.667-42.667v0h42.667c23.564 0 42.667 19.103 42.667 42.667s-19.103 42.667-42.667 42.667v0zM256 234.667h-42.667c-23.564 0-42.667-19.103-42.667-42.667s19.103-42.667 42.667-42.667v0h42.667c23.564 0 42.667 19.103 42.667 42.667s-19.103 42.667-42.667 42.667v0zM469.333 234.667h-42.667c-23.564 0-42.667-19.103-42.667-42.667s19.103-42.667 42.667-42.667v0h42.667c23.564 0 42.667 19.103 42.667 42.667s-19.103 42.667-42.667 42.667v0zM256 746.667h-42.667c-23.564 0-42.667-19.103-42.667-42.667s19.103-42.667 42.667-42.667v0h42.667c23.564 0 42.667 19.103 42.667 42.667s-19.103 42.667-42.667 42.667v0zM469.333 746.667h-42.667c-23.564 0-42.667-19.103-42.667-42.667s19.103-42.667 42.667-42.667v0h42.667c23.564 0 42.667 19.103 42.667 42.667s-19.103 42.667-42.667 42.667v0zM256 576h-42.667c-23.564 0-42.667-19.103-42.667-42.667s19.103-42.667 42.667-42.667v0h42.667c23.564 0 42.667 19.103 42.667 42.667s-19.103 42.667-42.667 42.667v0zM469.333 576h-42.667c-23.564 0-42.667-19.103-42.667-42.667s19.103-42.667 42.667-42.667v0h42.667c23.564 0 42.667 19.103 42.667 42.667s-19.103 42.667-42.667 42.667v0zM1024 533.333v-384c-0.146-117.762-95.571-213.188-213.319-213.333h-597.348c-117.762 0.146-213.188 95.571-213.333 213.319v597.347c0.146 117.762 95.571 213.188 213.319 213.333h256.014c117.762-0.146 213.188-95.571 213.333-213.319v-0.014h128c117.762-0.146 213.188-95.571 213.333-213.319v-0.014zM213.333 21.333h384v725.333c0 70.692-57.308 128-128 128v0h-256c-70.692 0-128-57.308-128-128v0-597.333c0-70.692 57.308-128 128-128v0zM938.667 533.333c0 70.692-57.308 128-128 128v0h-128v-640h128c70.692 0 128 57.308 128 128v0zM810.667 405.333c-23.564 0-42.667-19.103-42.667-42.667s19.103-42.667 42.667-42.667c23.564 0 42.667 19.103 42.667 42.667v0c0 23.564-19.103 42.667-42.667 42.667v0zM810.667 234.667c-23.564 0-42.667-19.103-42.667-42.667s19.103-42.667 42.667-42.667c23.564 0 42.667 19.103 42.667 42.667v0c0 23.564-19.103 42.667-42.667 42.667v0zM810.667 576c-23.564 0-42.667-19.103-42.667-42.667s19.103-42.667 42.667-42.667c23.564 0 42.667 19.103 42.667 42.667v0c0 23.564-19.103 42.667-42.667 42.667v0z" />
<glyph unicode="&#xe93a;" glyph-name="bulb" d="M767.744 862.464c-67.598 60.591-157.39 97.635-255.834 97.635-194.39 0-355.044-144.442-380.489-331.853l-0.221-1.985c-2.181-15.321-3.426-33.017-3.426-51.003 0-110.623 47.102-210.245 122.344-279.904l0.25-0.229c54.439-47.912 89.138-117.138 90.959-194.499l0.006-0.317v-6.869c0.097-86.913 70.527-157.343 157.431-157.44h26.463c86.913 0.097 157.343 70.527 157.44 157.431v23.433c1.383 68.643 33.010 129.63 82.059 170.366l0.373 0.301c80.426 70.697 130.912 173.792 130.912 288.679 0 113.645-49.401 215.752-127.9 286.018l-0.367 0.323zM525.227 21.333h-26.453c-39.804 0.049-72.058 32.303-72.107 72.102v0.005s-0.299 11.093-0.341 13.227h171.008v-13.227c-0.049-39.804-32.303-72.058-72.102-72.107h-0.005zM708.693 351.616c-47.482-41.343-82.722-95.605-100.302-157.309l-0.562-2.307h-53.163v306.517c49.975 18.042 85.097 64.964 85.333 120.121v0.029c0 23.564-19.103 42.667-42.667 42.667s-42.667-19.103-42.667-42.667v0c0-23.564-19.103-42.667-42.667-42.667s-42.667 19.103-42.667 42.667v0c0 23.564-19.103 42.667-42.667 42.667s-42.667-19.103-42.667-42.667v0c0.236-55.186 35.359-102.107 84.442-119.868l0.891-0.282v-306.517h-56.405c-20.309 65.833-56.491 121.767-104.164 165.334l-0.284 0.256c-58.559 54.674-95.061 132.329-95.061 218.509 0 152.604 114.452 278.477 262.2 296.463l1.437 0.142c10.585 1.25 22.846 1.963 35.273 1.963 0.019 0 0.038 0 0.057 0h-0.003c0.261 0.001 0.569 0.001 0.878 0.001 76.115 0 145.504-28.798 197.866-76.092l-0.258 0.23c61.356-54.887 99.791-134.3 99.791-222.69 0-89.351-39.276-169.529-101.505-224.211l-0.335-0.288z" />
<glyph unicode="&#xe93b;" glyph-name="calculator" d="M768-64h-512c-117.762 0.146-213.188 95.571-213.333 213.319v597.347c0.146 117.762 95.571 213.188 213.319 213.333h512.014c117.762-0.146 213.188-95.571 213.333-213.319v-597.347c-0.146-117.762-95.571-213.188-213.319-213.333h-0.014zM256 874.667c-70.692 0-128-57.308-128-128v0-597.333c0-70.692 57.308-128 128-128v0h512c70.692 0 128 57.308 128 128v0 597.333c0 70.692-57.308 128-128 128v0zM682.667 533.333h-341.333c-70.692 0-128 57.308-128 128s57.308 128 128 128v0h341.333c70.692 0 128-57.308 128-128s-57.308-128-128-128v0zM341.333 704c-23.564 0-42.667-19.103-42.667-42.667s19.103-42.667 42.667-42.667v0h341.333c23.564 0 42.667 19.103 42.667 42.667s-19.103 42.667-42.667 42.667v0zM256 405.333c-23.564 0-42.667-19.103-42.667-42.667s19.103-42.667 42.667-42.667c23.564 0 42.667 19.103 42.667 42.667v0c0 23.564-19.103 42.667-42.667 42.667v0zM426.667 405.333c-23.564 0-42.667-19.103-42.667-42.667s19.103-42.667 42.667-42.667c23.564 0 42.667 19.103 42.667 42.667v0c0 23.564-19.103 42.667-42.667 42.667v0zM597.333 405.333c-23.564 0-42.667-19.103-42.667-42.667s19.103-42.667 42.667-42.667c23.564 0 42.667 19.103 42.667 42.667v0c0 23.564-19.103 42.667-42.667 42.667v0zM256 234.667c-23.564 0-42.667-19.103-42.667-42.667s19.103-42.667 42.667-42.667c23.564 0 42.667 19.103 42.667 42.667v0c0 23.564-19.103 42.667-42.667 42.667v0zM426.667 234.667c-23.564 0-42.667-19.103-42.667-42.667s19.103-42.667 42.667-42.667c23.564 0 42.667 19.103 42.667 42.667v0c0 23.564-19.103 42.667-42.667 42.667v0zM768 405.333c-23.564 0-42.667-19.103-42.667-42.667s19.103-42.667 42.667-42.667c23.564 0 42.667 19.103 42.667 42.667v0c0 23.564-19.103 42.667-42.667 42.667v0zM810.667 192c0 23.564-19.103 42.667-42.667 42.667v0h-170.667c-23.564 0-42.667-19.103-42.667-42.667s19.103-42.667 42.667-42.667v0h170.667c23.564 0 42.667 19.103 42.667 42.667v0z" />
<glyph unicode="&#xe93c;" glyph-name="calendar" d="M810.667 874.667h-42.667v42.667c0 23.564-19.103 42.667-42.667 42.667s-42.667-19.103-42.667-42.667v0-42.667h-341.333v42.667c0 23.564-19.103 42.667-42.667 42.667s-42.667-19.103-42.667-42.667v0-42.667h-42.667c-117.762-0.146-213.188-95.571-213.333-213.319v-512.014c0.146-117.762 95.571-213.188 213.319-213.333h597.348c117.762 0.146 213.188 95.571 213.333 213.319v512.014c-0.146 117.762-95.571 213.188-213.319 213.333h-0.014zM85.333 661.333c0 70.692 57.308 128 128 128v0h597.333c70.692 0 128-57.308 128-128v0-42.667h-853.333zM810.667 21.333h-597.333c-70.692 0-128 57.308-128 128v0 384h853.333v-384c0-70.692-57.308-128-128-128v0zM576 320c0-35.346-28.654-64-64-64s-64 28.654-64 64c0 35.346 28.654 64 64 64s64-28.654 64-64zM362.667 320c0-35.346-28.654-64-64-64s-64 28.654-64 64c0 35.346 28.654 64 64 64s64-28.654 64-64zM789.333 320c0-35.346-28.654-64-64-64s-64 28.654-64 64c0 35.346 28.654 64 64 64s64-28.654 64-64z" />
<glyph unicode="&#xe93d;" glyph-name="camera" d="M810.667 789.333h-21.675l-93.184 120.832c-23.728 30.328-60.276 49.681-101.351 49.835h-164.889c-41.1-0.154-77.648-19.507-101.163-49.552l-0.213-0.283-93.184-120.832h-21.675c-117.762-0.146-213.188-95.571-213.333-213.319v-426.681c0.146-117.762 95.571-213.188 213.319-213.333h597.348c117.762 0.146 213.188 95.571 213.333 213.319v426.681c-0.146 117.762-95.571 213.188-213.319 213.333h-0.014zM395.776 858.027c7.898 10.128 20.085 16.593 33.784 16.64h164.872c13.704-0.061 25.886-6.521 33.721-16.545l0.071-0.095 52.992-68.693h-338.432zM938.667 149.333c0-70.692-57.308-128-128-128v0h-597.333c-70.692 0-128 57.308-128 128v0 426.667c0 70.692 57.308 128 128 128v0h597.333c70.692 0 128-57.308 128-128v0zM512 618.667c-141.385 0-256-114.615-256-256s114.615-256 256-256c141.385 0 256 114.615 256 256v0c-0.146 141.326-114.674 255.854-255.986 256h-0.014zM512 192c-94.257 0-170.667 76.41-170.667 170.667s76.41 170.667 170.667 170.667c94.257 0 170.667-76.41 170.667-170.667v0c0-94.257-76.41-170.667-170.667-170.667v0z" />
<glyph unicode="&#xe93e;" glyph-name="caret-down" d="M273.664 576h476.672c23.56-0.005 42.658-19.106 42.658-42.667 0-11.78-4.774-22.445-12.492-30.165l-238.336-238.336c-7.721-7.718-18.386-12.492-30.165-12.492s-22.445 4.774-30.165 12.492l-238.336 238.336c-7.718 7.721-12.492 18.386-12.492 30.165 0 23.561 19.097 42.661 42.657 42.667h0.001z" />
<glyph unicode="&#xe93f;" glyph-name="caret-left" d="M567.168 166.997l-238.336 238.336c-7.718 7.721-12.492 18.386-12.492 30.165s4.774 22.445 12.492 30.165l238.336 238.336c7.721 7.718 18.386 12.492 30.165 12.492 23.561 0 42.661-19.097 42.667-42.657v-476.673c-0.005-23.56-19.106-42.658-42.667-42.658-11.78 0-22.445 4.774-30.165 12.492v0z" />
<glyph unicode="&#xe940;" glyph-name="caret-right" d="M384 197.163v476.672c0.005 23.56 19.106 42.658 42.667 42.658 11.78 0 22.445-4.774 30.165-12.492l238.336-238.336c7.718-7.721 12.492-18.386 12.492-30.165s-4.774-22.445-12.492-30.165l-238.336-238.336c-7.721-7.718-18.386-12.492-30.165-12.492-23.561 0-42.661 19.097-42.667 42.657v0.001z" />
<glyph unicode="&#xe941;" glyph-name="caret-up" d="M273.664 277.333h476.672c23.56 0.005 42.658 19.106 42.658 42.667 0 11.78-4.774 22.445-12.492 30.165l-238.336 238.336c-7.721 7.718-18.386 12.492-30.165 12.492s-22.445-4.774-30.165-12.492l-238.336-238.336c-7.718-7.721-12.492-18.386-12.492-30.165 0-23.561 19.097-42.661 42.657-42.667h0.001z" />
<glyph unicode="&#xe942;" glyph-name="check" d="M952.277 770.944l-589.611-589.568c-7.727-7.757-18.418-12.556-30.229-12.556s-22.502 4.8-30.228 12.555l-228.012 228.225c-7.727 7.757-18.418 12.556-30.229 12.556s-22.502-4.8-30.228-12.555l-0.001-0.001c-7.757-7.727-12.556-18.418-12.556-30.229s4.8-22.502 12.555-30.228l228.097-228.054c23.217-23.175 55.268-37.506 90.667-37.506s67.45 14.331 90.668 37.508l589.566 589.438c7.744 7.725 12.535 18.407 12.535 30.208s-4.791 22.483-12.534 30.207l-0.001 0.001c-7.727 7.757-18.418 12.556-30.229 12.556s-22.502-4.8-30.228-12.555l-0.001-0.001z" />
<glyph unicode="&#xe943;" glyph-name="checkbox" d="M810.667 960h-597.333c-117.762-0.146-213.188-95.571-213.333-213.319v-597.347c0.146-117.762 95.571-213.188 213.319-213.333h597.348c117.762 0.146 213.188 95.571 213.333 213.319v597.347c-0.146 117.762-95.571 213.188-213.319 213.333h-0.014zM938.667 149.333c0-70.692-57.308-128-128-128v0h-597.333c-70.692 0-128 57.308-128 128v0 597.333c0 70.692 57.308 128 128 128v0h597.333c70.692 0 128-57.308 128-128v0zM398.208 280.789l-167.211 167.211c-7.721 7.718-18.386 12.492-30.165 12.492s-22.445-4.774-30.165-12.492v0c-7.718-7.721-12.492-18.386-12.492-30.165s4.774-22.445 12.492-30.165l167.211-167.211c15.444-15.45 36.782-25.006 60.352-25.006s44.908 9.556 60.352 25.005l394.752 394.752c7.718 7.721 12.492 18.386 12.492 30.165s-4.774 22.445-12.492 30.165v0c-7.721 7.718-18.386 12.492-30.165 12.492s-22.445-4.774-30.165-12.492v0z" />
<glyph unicode="&#xe944;" glyph-name="chess" d="M854.4 20.224h-42.667v70.613c-0.196 48.085-20.177 91.464-52.219 122.45l-0.048 0.046c-82.091 79.317-115.584 170.197-118.016 318.976h42.155c23.564 0 42.667 19.103 42.667 42.667s-19.103 42.667-42.667 42.667v0h-23.723c14.757 24.386 23.554 53.815 23.722 85.286v0.047c0 58.667-49.579 158.592-80.768 207.787-19.256 29.767-52.288 49.189-89.856 49.189s-70.6-19.422-89.603-48.772l-0.253-0.417c-31.232-49.237-80.811-149.333-80.811-207.829 0.191-31.518 8.985-60.942 24.147-86.093l-0.425 0.76h-23.595c-23.564 0-42.667-19.103-42.667-42.667s19.103-42.667 42.667-42.667v0h42.197c-2.475-148.779-36.011-239.616-118.016-318.933-32.028-31.046-51.971-74.4-52.181-122.414v-70.652h-42.667c-23.564 0-42.667-19.103-42.667-42.667s19.103-42.667 42.667-42.667v0h682.667c23.564 0 42.667 19.103 42.667 42.667s-19.103 42.667-42.667 42.667v0zM495.275 865.024c3.873 5.815 10.402 9.595 17.813 9.595s13.941-3.78 17.764-9.517l0.049-0.078c31.218-46.305 54.662-100.673 66.972-159.143l0.527-2.99c0-47.128-38.205-85.333-85.333-85.333s-85.333 38.205-85.333 85.333v0c12.869 61.446 36.324 115.797 68.582 163.732l-1.040-1.641zM556.288 532.224c2.304-150.016 34.133-253.909 107.605-341.333h-301.611c73.387 87.424 105.301 191.36 107.648 341.333zM299.776 90.837c0.069 5.25 0.625 10.327 1.625 15.242l-0.089-0.522h423.595c0.876-4.387 1.416-9.465 1.493-14.655l0.001-0.065v-70.613h-426.667z" />
<glyph unicode="&#xe945;" glyph-name="circle" d="M512 960c-282.77 0-512-229.23-512-512s229.23-512 512-512c282.77 0 512 229.23 512 512v0c-0.316 282.643-229.358 511.685-511.97 512h-0.030zM512 21.333c-235.641 0-426.667 191.025-426.667 426.667s191.025 426.667 426.667 426.667c235.641 0 426.667-191.025 426.667-426.667v0c-0.267-235.534-191.133-426.4-426.641-426.667h-0.025z" />
<glyph unicode="&#xe946;" glyph-name="circle-small" d="M512 746.667c-164.949 0-298.667-133.718-298.667-298.667s133.718-298.667 298.667-298.667c164.949 0 298.667 133.718 298.667 298.667v0c-0.194 164.871-133.796 298.473-298.648 298.667h-0.018zM512 234.667c-117.821 0-213.333 95.513-213.333 213.333s95.513 213.333 213.333 213.333c117.821 0 213.333-95.513 213.333-213.333v0c-0.146-117.762-95.571-213.188-213.319-213.333h-0.014z" />
<glyph unicode="&#xe947;" glyph-name="clip" d="M979.2 550.4c-7.721 7.718-18.386 12.492-30.165 12.492s-22.445-4.774-30.165-12.492v0l-464.725-466.731c-38.609-38.614-91.95-62.498-150.869-62.498-117.828 0-213.346 95.518-213.346 213.346 0 58.909 23.875 112.241 62.477 150.848v0l450.091 451.925c23.088 22.731 54.795 36.767 89.78 36.767 70.692 0 128-57.308 128-128 0-34.974-14.027-66.673-36.762-89.776l0.017 0.017-450.091-451.925c-7.819-7.5-18.453-12.118-30.165-12.118s-22.346 4.618-30.181 12.132l0.015-0.015c-7.718 7.721-12.492 18.386-12.492 30.165s4.774 22.445 12.492 30.165v0l400.725 402.56c7.41 7.665 11.977 18.12 11.977 29.641 0 23.564-19.103 42.667-42.667 42.667-11.521 0-21.976-4.567-29.653-11.989l0.012 0.012-400.725-402.56c-23.168-23.164-37.498-55.167-37.498-90.517s14.33-67.353 37.498-90.517v0c23.489-22.445 55.39-36.259 90.517-36.259s67.029 13.814 90.567 36.306l-0.050-0.047 450.048 451.968c37.464 38.403 60.574 90.96 60.574 148.915 0 117.821-95.513 213.333-213.333 213.333-57.965 0-110.531-23.118-148.98-60.637l0.043 0.042-450.091-451.925c-54.051-54.051-87.482-128.721-87.482-211.2 0-164.957 133.724-298.682 298.682-298.682 82.479 0 157.149 33.431 211.2 87.482v0l464.725 466.603c7.769 7.729 12.578 18.428 12.578 30.251s-4.808 22.522-12.576 30.249l-0.002 0.002z" />
<glyph unicode="&#xe948;" glyph-name="clock" d="M512 960c-282.77 0-512-229.23-512-512s229.23-512 512-512c282.77 0 512 229.23 512 512v0c-0.316 282.643-229.358 511.685-511.97 512h-0.030zM512 21.333c-235.641 0-426.667 191.025-426.667 426.667s191.025 426.667 426.667 426.667c235.641 0 426.667-191.025 426.667-426.667v0c-0.267-235.534-191.133-426.4-426.641-426.667h-0.025zM512 704c-23.564 0-42.667-19.103-42.667-42.667v0-184.533l-143.829-90.112c-12.153-7.681-20.106-21.045-20.106-36.267 0-23.617 19.145-42.762 42.762-42.762 8.395 0 16.225 2.419 22.831 6.599l-0.175-0.104 163.84 102.4c12.099 7.669 20.013 20.988 20.013 36.156 0 0.159-0.001 0.318-0.003 0.476v-0.024 208.171c0 23.564-19.103 42.667-42.667 42.667v0z" />
<glyph unicode="&#xe949;" glyph-name="cloud" d="M759.125 652.288c-36.345 152.421-171.371 264.012-332.46 264.012-188.15 0-340.744-152.232-341.332-340.243v-0.056c0-0.068 0-0.148 0-0.228 0-57.174 14.208-111.029 39.286-158.228l-0.886 1.827c-74.13-40.314-123.601-117.612-123.601-206.464 0-129.367 104.873-234.24 234.24-234.24 0.104 0 0.207 0 0.311 0h447.984c187.831 0.9 339.749 153.373 339.749 341.33 0 160.829-111.231 295.678-260.96 331.817l-2.33 0.475zM682.667 64h-448c-0.132 0-0.289-0.001-0.445-0.001-82.262 0-148.949 66.687-148.949 148.949 0 69.203 47.194 127.383 111.153 144.112l1.037 0.23c18.551 4.905 32.003 21.538 32.003 41.313 0 9.555-3.141 18.376-8.446 25.488l0.080-0.113c-31.489 41.769-50.432 94.541-50.432 151.736 0 0.1 0 0.2 0 0.3v-0.016c1.093 140.553 115.286 254.071 255.993 254.071 128.663 0 235.157-94.917 253.28-218.549l0.167-1.389c2.597-19.101 17.519-34.052 36.384-36.668l0.224-0.025c125.023-18.288 219.942-124.783 219.942-253.448 0-140.678-113.472-254.854-253.882-255.991l-0.108-0.001z" />
<glyph unicode="&#xe94a;" glyph-name="cloud-check" d="M498.859-21.333c-0.097 0-0.212 0-0.326 0-35.242 0-67.135 14.338-90.164 37.498l-0.006 0.006-144.512 145.963c-9.358 7.88-15.262 19.602-15.262 32.703 0 23.564 19.103 42.667 42.667 42.667 13.271 0 25.128-6.059 32.953-15.562l0.059-0.073 144.384-145.664c7.824-7.435 18.429-12.008 30.101-12.008s22.277 4.573 30.12 12.025l-0.019-0.018 230.997 230.997c7.724 7.729 18.397 12.51 30.187 12.51 23.569 0 42.675-19.106 42.675-42.675 0-11.779-4.772-22.444-12.489-30.166l-231.040-230.997c-22.98-22.988-54.73-37.206-89.802-37.206-0.184 0-0.368 0-0.552 0.001h0.028zM298.667 21.333c0 23.564-19.103 42.667-42.667 42.667v0h-13.525c-75.976 1.504-139.063 54.906-155.353 126.14l-0.21 1.092c-1.064 6.667-1.672 14.355-1.672 22.184 0 56.878 32.092 106.26 79.156 131.028l0.81 0.388c26.356 14.798 43.872 42.57 43.872 74.433 0 14.709-3.733 28.546-10.303 40.616l0.223-0.447c-18.442 34.475-29.276 75.411-29.276 118.878 0 141.385 114.615 256 256 256 115.109 0 212.474-75.972 244.688-180.51l0.481-1.814c13.112-41.915 45.374-74.304 86.274-87.337l0.937-0.258c105.425-32.792 180.643-129.483 180.643-243.742 0-7.484-0.323-14.892-0.955-22.212l0.066 0.951c-10.466-104.392-83.942-189.13-181.415-216.161l-1.753-0.415c-16.925-5.919-28.848-21.751-28.848-40.367 0-23.564 19.103-42.667 42.667-42.667 4.573 0 8.978 0.719 13.108 2.051l-0.302-0.084c141.591 41.356 243.271 170.005 243.271 322.404 0 151.712-100.766 279.888-239.021 321.253l-2.373 0.61c-14.885 4.74-26.325 16.363-30.721 31.031l-0.085 0.329c-44.603 140.155-173.61 239.909-325.917 239.909-165.34 0-303.223-117.559-334.623-273.65l-0.367-2.184c-3.989-19.148-6.272-41.152-6.272-63.689 0-57.716 14.976-111.934 41.255-158.98l-0.849 1.655c-75.303-39.431-125.805-117.024-125.805-206.411 0-12.291 0.955-24.359 2.794-36.134l-0.168 1.308c23.255-113.689 121.453-198.349 239.809-200.53l0.234-0.003h13.525c23.564 0 42.667 19.103 42.667 42.667v0z" />
<glyph unicode="&#xe94b;" glyph-name="cloud-disabled" d="M929.323 91.008c52.676 52.12 87.319 122.372 93.79 200.617l0.077 1.154c0.745 8.435 1.17 18.249 1.17 28.161 0 152.387-100.362 281.332-238.592 324.345l-2.407 0.645c-14.863 4.737-26.286 16.343-30.678 30.988l-0.085 0.329c-43.808 140.394-172.634 240.528-324.847 240.528-90.186 0-172.162-35.152-232.974-92.503l0.168 0.157-122.112 122.069c-7.665 7.41-18.12 11.977-29.641 11.977-23.564 0-42.667-19.103-42.667-42.667 0-11.521 4.567-21.976 11.989-29.653l938.655-938.655c7.665-7.41 18.12-11.977 29.641-11.977 23.564 0 42.667 19.103 42.667 42.667 0 11.521-4.567 21.976-11.989 29.653l0.012-0.012zM388.267 829.227c11.53 1.842 24.824 2.895 38.363 2.895 114.255 0 211.005-74.949 243.766-178.364l0.495-1.811c13.124-41.897 45.383-74.269 86.274-87.294l0.937-0.258c105.424-32.793 180.64-129.484 180.64-243.741 0-7.469-0.321-14.863-0.951-22.169l0.066 0.95c-4.711-58.216-30.381-109.673-69.36-147.485l-0.058-0.056-613.205 613.205c35.713 32.965 81.172 55.869 131.584 63.937l1.45 0.191zM725.035 28.672c0.152-1.354 0.239-2.924 0.239-4.513 0-21.95-16.575-40.029-37.892-42.402l-0.193-0.017c-16.717-1.902-36.093-2.987-55.721-2.987-0.225 0-0.451 0-0.676 0h-388.231c-118.602 2.134-216.831 86.768-239.852 198.839l-0.276 1.609c-1.66 10.435-2.608 22.466-2.608 34.719 0 89.301 50.376 166.837 124.261 205.738l1.27 0.61c-25.241 45.233-40.103 99.235-40.103 156.707 0 16.804 1.271 33.312 3.721 49.432l-0.226-1.808c3.013 20.88 20.784 36.745 42.261 36.745 23.569 0 42.675-19.106 42.675-42.675 0-2.092-0.151-4.149-0.441-6.16l0.027 0.229c-1.669-10.951-2.622-23.586-2.622-36.444 0-42.55 10.437-82.663 28.89-117.918l-0.668 1.402c6.452-11.722 10.248-25.691 10.248-40.547 0-31.956-17.566-59.81-43.569-74.432l-0.429-0.221c-47.81-25.164-79.851-74.506-79.851-131.331 0-7.86 0.613-15.576 1.794-23.104l-0.108 0.835c16.583-72.212 79.624-125.497 155.359-126.974l0.161-0.002h388.267c0.114 0 0.25 0 0.386 0 16.503 0 32.792 0.914 48.819 2.696l-1.973-0.178c1.314 0.142 2.838 0.224 4.381 0.224 22.012 0 40.162-16.537 42.704-37.865l0.020-0.204z" />
<glyph unicode="&#xe94c;" glyph-name="cloud-download" d="M799.829 92.416c6.728-7.51 10.842-17.484 10.842-28.419 0-12.653-5.508-24.019-14.256-31.833l-0.042-0.037-67.669-60.331c-22.346-22.129-53.102-35.801-87.051-35.801-0.356 0-0.712 0.002-1.067 0.005h0.054c-0.076 0-0.165 0-0.255 0-35.489 0-67.62 14.381-90.882 37.633l0.001-0.001-65.877 58.624c-8.791 7.851-14.298 19.218-14.298 31.872 0 23.567 19.105 42.672 42.672 42.672 10.913 0 20.869-4.097 28.415-10.836l-0.042 0.037 56.96-50.944v317.611c0 23.564 19.103 42.667 42.667 42.667s42.667-19.103 42.667-42.667v0-317.653l56.96 50.859c7.503 6.703 17.459 10.799 28.371 10.799 12.633 0 23.983-5.49 31.796-14.215l0.036-0.041zM783.189 645.931c-14.893 4.726-26.339 16.355-30.721 31.031l-0.084 0.329c-44.629 140.111-173.615 239.825-325.89 239.825-165.31 0-303.173-117.516-334.606-273.565l-0.367-2.186c-3.982-19.137-6.261-41.129-6.261-63.654 0-57.726 14.972-111.956 41.244-159.017l-0.85 1.657c-75.313-39.486-125.812-117.118-125.812-206.545 0-12.213 0.942-24.206 2.757-35.91l-0.166 1.303c23.255-113.689 121.453-198.349 239.809-200.53l0.234-0.003h98.859c23.564 0 42.667 19.103 42.667 42.667s-19.103 42.667-42.667 42.667v0h-98.859c-75.976 1.504-139.063 54.906-155.353 126.14l-0.21 1.092c-1.064 6.666-1.671 14.352-1.671 22.18 0 56.868 32.071 106.245 79.113 131.031l0.809 0.388c26.372 14.783 43.902 42.556 43.902 74.425 0 14.696-3.728 28.521-10.29 40.582l0.222-0.447c-18.442 34.475-29.276 75.411-29.276 118.878 0 141.385 114.615 256 256 256 115.109 0 212.474-75.972 244.688-180.51l0.481-1.814c13.132-41.906 45.408-74.281 86.316-87.295l0.937-0.257c105.402-32.806 180.598-129.486 180.598-243.729 0-7.473-0.322-14.872-0.952-22.182l0.066 0.95c-3.46-47.272-20.747-89.938-47.787-124.629l0.384 0.512c-5.514-7.118-8.839-16.173-8.839-26.005 0-23.568 19.106-42.674 42.674-42.674 13.736 0 25.956 6.49 33.762 16.571l0.073 0.098c36.17 46.779 59.759 104.957 64.782 168.36l0.071 1.112c0.746 8.439 1.171 18.257 1.171 28.174 0 152.371-100.341 281.307-238.551 324.332l-2.406 0.645z" />
<glyph unicode="&#xe94d;" glyph-name="cloud-share" d="M896 192c-34.475-0.040-65.737-13.768-88.649-36.040l0.030 0.029-126.293 63.189c0.789 4.49 1.355 9.825 1.571 15.249l0.008 0.239c-0.224 5.663-0.789 10.998-1.682 16.221l0.104-0.733 126.293 63.189c22.905-21.966 54.054-35.491 88.362-35.491 70.551 0 127.744 57.193 127.744 127.744s-57.193 127.744-127.744 127.744c-70.551 0-127.744-57.193-127.744-127.744 0-0.093 0-0.185 0-0.278v0.014c0.224-5.663 0.789-10.998 1.682-16.221l-0.104 0.733-126.293-63.189c-23.004 22.279-54.401 36.011-89.005 36.011-70.692 0-128-57.308-128-128s57.308-128 128-128c34.604 0 66.001 13.732 89.040 36.044l-0.034-0.033 126.293-63.189c-0.789-4.49-1.355-9.825-1.571-15.249l-0.008-0.239c0-70.692 57.308-128 128-128s128 57.308 128 128c0 70.692-57.308 128-128 128v0zM896 448c23.564 0 42.667-19.103 42.667-42.667s-19.103-42.667-42.667-42.667c-23.564 0-42.667 19.103-42.667 42.667v0c0 23.564 19.103 42.667 42.667 42.667v0zM554.667 192c-23.564 0-42.667 19.103-42.667 42.667s19.103 42.667 42.667 42.667c23.564 0 42.667-19.103 42.667-42.667v0c0-23.564-19.103-42.667-42.667-42.667v0zM896 21.333c-23.564 0-42.667 19.103-42.667 42.667s19.103 42.667 42.667 42.667c23.564 0 42.667-19.103 42.667-42.667v0c0-23.564-19.103-42.667-42.667-42.667v0zM512 21.333c0-23.564-19.103-42.667-42.667-42.667v0h-227.029c-118.531 2.234-216.659 86.883-239.597 198.927l-0.275 1.606c-1.664 10.443-2.614 22.485-2.614 34.748 0 89.349 50.458 166.913 124.434 205.752l1.274 0.609c-25.429 45.391-40.406 99.609-40.406 157.325 0 22.537 2.284 44.541 6.632 65.793l-0.36-2.104c31.766 158.276 169.65 275.835 334.99 275.835 152.306 0 281.313-99.754 325.251-237.492l0.666-2.417c4.48-14.997 15.92-26.62 30.476-31.269l0.329-0.091c18.095-5.213 31.108-21.622 31.108-41.071 0-23.564-19.103-42.667-42.667-42.667-4.84 0-9.493 0.806-13.83 2.291l0.3-0.089c-41.837 13.291-74.099 45.68-86.957 86.658l-0.253 0.937c-32.695 106.351-130.060 182.323-245.169 182.323-141.385 0-256-114.615-256-256 0-43.467 10.833-84.404 29.947-120.257l-0.671 1.379c6.347-11.623 10.080-25.46 10.080-40.17 0-31.863-17.516-59.635-43.445-74.212l-0.427-0.221c-47.874-25.156-79.966-74.538-79.966-131.416 0-7.829 0.608-15.516 1.78-23.017l-0.107 0.833c16.468-72.305 79.53-125.698 155.315-127.187l0.162-0.003h227.029c23.564 0 42.667-19.103 42.667-42.667v0z" />
<glyph unicode="&#xe94e;" glyph-name="cloud-upload" d="M785.067 645.291c-15.706 4.608-27.879 16.584-32.675 31.829l-0.093 0.341c-43.115 142.566-173.311 244.582-327.334 244.582-188.513 0-341.333-152.82-341.333-341.333 0-45.653 8.963-89.213 25.225-129.016l-0.824 2.279c2.375-5.272 3.759-11.43 3.759-17.911 0-14.154-6.602-26.766-16.894-34.925l-0.092-0.071c-57.821-43.235-94.848-111.526-94.848-188.465 0-11.784 0.869-23.365 2.545-34.682l-0.156 1.281c19.582-114.503 118.092-200.558 236.701-200.558 1.205 0 2.408 0.009 3.609 0.027l-0.182-0.002h226.859c23.564 0 42.667 19.103 42.667 42.667v0 0c0 23.564-19.103 42.667-42.667 42.667v0h-226.859c-1.116-0.029-2.43-0.046-3.748-0.046-75.64 0-138.563 54.448-151.714 126.289l-0.144 0.945c-1.101 6.77-1.729 14.574-1.729 22.524 0 48.726 23.62 91.934 60.034 118.802l0.405 0.285c31.538 23.769 51.715 61.156 51.715 103.255 0 17.567-3.513 34.314-9.875 49.576l0.315-0.853c-10.705 27.442-16.909 59.211-16.909 92.429 0 29.925 5.035 58.675 14.304 85.448l-0.552-1.834c31.973 90.502 111.229 156.602 207.319 169.080l1.278 0.136c9.746 1.25 21.021 1.963 32.463 1.963 0.167 0 0.335 0 0.502 0h-0.026c0.249 0.001 0.545 0.001 0.84 0.001 115.111 0 212.433-76.165 244.318-180.849l0.474-1.809c12.75-40.995 44.594-72.557 84.861-84.674l0.899-0.233c105.761-31.989 181.44-128.576 181.44-242.838 0-101.777-60.044-189.53-146.64-229.769l-1.562-0.651c-13.562-7.064-22.664-21.015-22.664-37.092 0-0.28 0.003-0.559 0.008-0.837l-0.001 0.042c-0.002-0.141-0.003-0.307-0.003-0.473 0-23.305 18.892-42.197 42.197-42.197 6.162 0 12.016 1.321 17.293 3.695l-0.267-0.107c176.427 84.821 272.256 307.883 122.88 523.349-40.572 52.631-97.493 90.901-163.079 107.301l-2.041 0.432zM798.251 307.584l-128 128c-7.721 7.718-18.386 12.492-30.165 12.492s-22.445-4.774-30.165-12.492l-128-128c-7.729-7.724-12.51-18.397-12.51-30.187 0-23.569 19.106-42.675 42.675-42.675 11.779 0 22.444 4.772 30.166 12.489v0l55.083 55.168v-323.712c0-23.564 19.103-42.667 42.667-42.667s42.667 19.103 42.667 42.667v0 323.712l55.467-55.168c7.722-7.716 18.386-12.489 30.165-12.489 23.569 0 42.675 19.106 42.675 42.675 0 11.79-4.781 22.463-12.51 30.186v0z" />
<glyph unicode="&#xe94f;" glyph-name="comment" d="M1024 480.128c-17.141 269.116-239.606 480.896-511.536 480.896-283.053 0-512.512-229.459-512.512-512.512s229.459-512.512 512.512-512.512c0.092 0 0.184 0 0.275 0h297.927c117.772 0.121 213.212 95.561 213.333 213.322v330.807zM938.667 149.333c0-70.692-57.308-128-128-128v0h-297.941c-126.538 0.059-240.239 54.968-318.626 142.239l-0.35 0.396c-67.404 74.65-108.645 174.051-108.645 283.085 0 17.732 1.091 35.209 3.209 52.368l-0.207-2.055c23.991 194.535 175.381 347.451 367.104 373.555l2.219 0.247c16.633 2.202 35.888 3.472 55.435 3.499h0.032c0.343 0.001 0.748 0.002 1.154 0.002 103.41 0 198.16-37.082 271.676-98.673l-0.66 0.538c87.475-73.067 145.133-179.295 153.524-299.107l0.076-1.351zM341.333 576h170.667c23.564 0 42.667 19.103 42.667 42.667s-19.103 42.667-42.667 42.667v0h-170.667c-23.564 0-42.667-19.103-42.667-42.667s19.103-42.667 42.667-42.667v0zM682.667 490.667h-341.333c-23.564 0-42.667-19.103-42.667-42.667s19.103-42.667 42.667-42.667v0h341.333c23.564 0 42.667 19.103 42.667 42.667s-19.103 42.667-42.667 42.667v0zM682.667 320h-341.333c-23.564 0-42.667-19.103-42.667-42.667s19.103-42.667 42.667-42.667v0h341.333c23.564 0 42.667 19.103 42.667 42.667s-19.103 42.667-42.667 42.667v0z" />
<glyph unicode="&#xe950;" glyph-name="comment-alt" d="M853.333 960h-682.667c-94.257 0-170.667-76.41-170.667-170.667v0-512c0-94.257 76.41-170.667 170.667-170.667v0h123.733l189.909-160.555c7.383-6.279 17.027-10.098 27.563-10.098s20.18 3.819 27.623 10.148l-0.061-0.050 190.165 160.555h123.733c94.257 0 170.667 76.41 170.667 170.667v0 512c0 94.257-76.41 170.667-170.667 170.667v0zM938.667 277.333c0-47.128-38.205-85.333-85.333-85.333v0h-123.733c-21.055-0.007-40.326-7.638-55.204-20.282l0.122 0.101-162.517-137.259-162.432 137.259c-14.763 12.549-34.045 20.181-55.109 20.181-0.021 0-0.041 0-0.062 0h-123.73c-47.128 0-85.333 38.205-85.333 85.333v0 512c0 47.128 38.205 85.333 85.333 85.333v0h682.667c47.128 0 85.333-38.205 85.333-85.333v0zM298.667 661.333h213.333c23.564 0 42.667 19.103 42.667 42.667s-19.103 42.667-42.667 42.667v0h-213.333c-23.564 0-42.667-19.103-42.667-42.667s19.103-42.667 42.667-42.667v0zM725.333 576h-426.667c-23.564 0-42.667-19.103-42.667-42.667s19.103-42.667 42.667-42.667v0h426.667c23.564 0 42.667 19.103 42.667 42.667s-19.103 42.667-42.667 42.667v0zM725.333 405.333h-426.667c-23.564 0-42.667-19.103-42.667-42.667s19.103-42.667 42.667-42.667v0h426.667c23.564 0 42.667 19.103 42.667 42.667s-19.103 42.667-42.667 42.667v0z" />
<glyph unicode="&#xe951;" glyph-name="compress" d="M298.667 960c-23.564 0-42.667-19.103-42.667-42.667v0-85.333c0-70.692-57.308-128-128-128v0h-85.333c-23.564 0-42.667-19.103-42.667-42.667s19.103-42.667 42.667-42.667v0h85.333c117.762 0.146 213.188 95.571 213.333 213.319v85.347c0 23.564-19.103 42.667-42.667 42.667v0zM981.333 277.333h-85.333c-117.762-0.146-213.188-95.571-213.333-213.319v-85.347c0-23.564 19.103-42.667 42.667-42.667s42.667 19.103 42.667 42.667v0 85.333c0 70.692 57.308 128 128 128v0h85.333c23.564 0 42.667 19.103 42.667 42.667s-19.103 42.667-42.667 42.667v0zM896 618.667h85.333c23.564 0 42.667 19.103 42.667 42.667s-19.103 42.667-42.667 42.667v0h-85.333c-70.692 0-128 57.308-128 128v0 85.333c0 23.564-19.103 42.667-42.667 42.667s-42.667-19.103-42.667-42.667v0-85.333c0.146-117.762 95.571-213.188 213.319-213.333h0.014zM128 277.333h-85.333c-23.564 0-42.667-19.103-42.667-42.667s19.103-42.667 42.667-42.667v0h85.333c70.692 0 128-57.308 128-128v0-85.333c0-23.564 19.103-42.667 42.667-42.667s42.667 19.103 42.667 42.667v0 85.333c-0.146 117.762-95.571 213.188-213.319 213.333h-0.014z" />
<glyph unicode="&#xe952;" glyph-name="compress-alt" d="M311.168 870.784l-80.768-80.811-157.568 157.525c-7.665 7.41-18.12 11.977-29.641 11.977-23.564 0-42.667-19.103-42.667-42.667 0-11.521 4.567-21.976 11.989-29.653l157.513-157.556-80.811-80.768c-7.718-7.721-12.492-18.386-12.492-30.165 0-23.564 19.103-42.667 42.667-42.667 0.027 0 0.054 0 0.080 0h203.26c33.838 0 61.269 27.431 61.269 61.269v0 203.264c0 0.023 0 0.049 0 0.076 0 23.564-19.103 42.667-42.667 42.667-11.78 0-22.445-4.774-30.166-12.492v0zM853.973 166.4l80.811 80.811c7.693 7.716 12.45 18.364 12.45 30.123 0 23.564-19.103 42.667-42.667 42.667-0.012 0-0.024 0-0.035 0h-203.262c-33.838 0-61.269-27.431-61.269-61.269v0-203.264c0-0.010 0-0.022 0-0.034 0-23.564 19.103-42.667 42.667-42.667 11.78 0 22.445 4.774 30.165 12.492l80.768 80.768 157.525-157.525c7.665-7.41 18.12-11.977 29.641-11.977 23.564 0 42.667 19.103 42.667 42.667 0 11.521-4.567 21.976-11.989 29.653l0.012-0.012zM701.269 576h203.264c0.010 0 0.022 0 0.034 0 23.564 0 42.667 19.103 42.667 42.667 0 11.78-4.774 22.445-12.492 30.165l-80.768 80.768 157.525 157.525c7.729 7.724 12.51 18.397 12.51 30.187 0 23.569-19.106 42.675-42.675 42.675-11.779 0-22.444-4.772-30.166-12.489l-157.568-157.525-80.768 80.811c-7.721 7.718-18.386 12.492-30.165 12.492-23.564 0-42.667-19.103-42.667-42.667 0-0.027 0-0.054 0-0.080v0.004-203.264c0-33.838 27.431-61.269 61.269-61.269v0zM322.731 320h-203.264c-0.010 0-0.022 0-0.034 0-23.564 0-42.667-19.103-42.667-42.667 0-11.78 4.774-22.445 12.492-30.165l80.768-80.768-157.525-157.568c-8.036-7.769-13.026-18.647-13.026-30.69 0-23.564 19.103-42.667 42.667-42.667 12.043 0 22.92 4.989 30.678 13.014l157.58 157.537 80.811-80.811c7.716-7.693 18.364-12.45 30.123-12.45 23.564 0 42.667 19.103 42.667 42.667 0 0.012 0 0.024 0 0.035v-0.002 203.264c0 33.838-27.431 61.269-61.269 61.269v0z" />
<glyph unicode="&#xe953;" glyph-name="computer" d="M810.667 917.333h-597.333c-117.762-0.146-213.188-95.571-213.333-213.319v-341.347c0.146-117.762 95.571-213.188 213.319-213.333h256.014v-85.333h-170.667c-23.564 0-42.667-19.103-42.667-42.667s19.103-42.667 42.667-42.667v0h426.667c23.564 0 42.667 19.103 42.667 42.667s-19.103 42.667-42.667 42.667v0h-170.667v85.333h256c117.762 0.146 213.188 95.571 213.333 213.319v341.347c-0.146 117.762-95.571 213.188-213.319 213.333h-0.014zM213.333 832h597.333c70.692 0 128-57.308 128-128v0-298.667h-853.333v298.667c0 70.692 57.308 128 128 128v0zM810.667 234.667h-597.333c-55.186 0.236-102.107 35.359-119.868 84.442l-0.282 0.891h837.632c-18.042-49.975-64.964-85.097-120.121-85.333h-0.029z" />
<glyph unicode="&#xe954;" glyph-name="cookie" d="M469.333 554.667c0-35.346-28.654-64-64-64s-64 28.654-64 64c0 35.346 28.654 64 64 64s64-28.654 64-64zM853.333 896c0-35.346-28.654-64-64-64s-64 28.654-64 64c0 35.346 28.654 64 64 64s64-28.654 64-64zM981.333 682.667c0-35.346-28.654-64-64-64s-64 28.654-64 64c0 35.346 28.654 64 64 64s64-28.654 64-64zM469.333 341.333c0-35.346-28.654-64-64-64s-64 28.654-64 64c0 35.346 28.654 64 64 64s64-28.654 64-64zM682.667 341.333c0-35.346-28.654-64-64-64s-64 28.654-64 64c0 35.346 28.654 64 64 64s64-28.654 64-64zM1021.568 496.896c-2.008 20.349-18.051 36.392-38.223 38.386l-0.177 0.014c-203.345 20.168-363.642 180.479-383.644 382.057l-0.142 1.772c-2.008 20.349-18.051 36.392-38.223 38.386l-0.177 0.014c-16.171 1.579-32.469 2.475-48.981 2.475-282.77 0-512-229.23-512-512s229.23-512 512-512c282.77 0 512 229.23 512 512v0c0 16.512-0.896 32.811-2.432 48.896zM512 21.333c-235.641 0-426.667 191.025-426.667 426.667s191.025 426.667 426.667 426.667v0h7.253c37.421-214.89 204.524-381.993 416.348-418.97l3.065-0.443c0-2.432 0-4.821 0-7.253-0.267-235.534-191.133-426.4-426.641-426.667h-0.025z" />
</font>
</defs>
</svg>
