<?xml version="1.0" encoding="utf-8"?>
<!-- Generator: Adobe Illustrator 24.3.0, SVG Export Plug-In . SVG Version: 6.00 Build 0)  -->
<svg version="1.1" id="Layer_1" xmlns="http://www.w3.org/2000/svg" xmlns:xlink="http://www.w3.org/1999/xlink" x="0px" y="0px"
	 viewBox="0 0 278.3 22.2" style="enable-background:new 0 0 278.3 22.2;" xml:space="preserve">
<g id="Group_100" transform="translate(248.898 8.55)">
	<path id="Path_351" style="fill:#4ED75B;" d="M6.9,1.2v6.5H2c-0.5,0-0.9-0.4-0.9-0.9V2c0-0.5,0.4-0.9,0.9-0.9L6.9,1.2z"/>
	<g id="Group_99" transform="translate(0 0)">
		<path id="Path_352" style="fill:#898989;" d="M14.3,0H2C0.9,0,0,0.9,0,2v4.8c0,1.1,0.9,2,2,2h12.3c1.1,0,2-0.9,2-2V2
			C16.3,0.9,15.4,0,14.3,0z M15.8,6.8c0,0.8-0.6,1.4-1.4,1.4H2c-0.8,0-1.4-0.6-1.4-1.4V2c0-0.8,0.7-1.4,1.4-1.4h12.3
			c0.8,0,1.4,0.6,1.4,1.4v4.8H15.8z"/>
	</g>
	<path id="Path_353" style="fill:#898989;" d="M16.9,5.6c0.6,0,1.2-0.5,1.2-1.2s-0.5-1.2-1.2-1.2V5.6z"/>
</g>
<g style="enable-background:new    ;">
	<path style="fill:#2D2D2D;" d="M233.8,13.3V9.5H233l-2.5,3.9v0.4h2.6v1.3h0.7v-1.3h0.8v-0.6h-0.8V13.3z M233.1,13.3h-1.8l1.7-2.6
		l0.1-0.2V13.3z"/>
	<path style="fill:#2D2D2D;" d="M238.5,12.8c-0.2-0.2-0.4-0.4-0.7-0.5c0.3-0.1,0.5-0.3,0.6-0.5c0.2-0.2,0.2-0.5,0.2-0.7
		c0-0.5-0.1-0.9-0.5-1.2c-0.3-0.3-0.7-0.4-1.3-0.4c-0.3,0-0.6,0.1-0.9,0.2c-0.3,0.1-0.5,0.3-0.6,0.6c-0.1,0.2-0.2,0.5-0.2,0.8h0.7
		c0-0.3,0.1-0.5,0.3-0.7s0.4-0.3,0.8-0.3c0.7,0,1,0.3,1,1c0,0.3-0.1,0.5-0.3,0.7s-0.5,0.3-0.8,0.3h-0.5v0.6h0.5
		c0.4,0,0.7,0.1,0.9,0.3s0.3,0.4,0.3,0.8c0,0.3-0.1,0.6-0.3,0.8s-0.5,0.3-0.8,0.3s-0.6-0.1-0.8-0.3s-0.3-0.4-0.3-0.7h-0.7
		c0,0.3,0.1,0.6,0.2,0.8c0.2,0.2,0.4,0.4,0.6,0.6c0.3,0.1,0.6,0.2,0.9,0.2c0.4,0,0.7-0.1,0.9-0.2c0.3-0.1,0.5-0.3,0.6-0.6
		c0.2-0.2,0.2-0.5,0.2-0.9C238.8,13.3,238.7,13,238.5,12.8z"/>
	<path style="fill:#2D2D2D;" d="M244.5,13c-0.2-0.2-0.5-0.3-0.8-0.3s-0.6,0.1-0.8,0.3s-0.3,0.5-0.3,0.8v0.3c0,0.4,0.1,0.6,0.3,0.9
		c0.2,0.2,0.5,0.3,0.8,0.3s0.6-0.1,0.8-0.3s0.3-0.5,0.3-0.8v-0.3C244.8,13.5,244.7,13.2,244.5,13z M244.2,14.1
		c0,0.2-0.1,0.4-0.2,0.5s-0.3,0.2-0.4,0.2c-0.2,0-0.3-0.1-0.5-0.2c-0.1-0.1-0.2-0.3-0.2-0.5v-0.3c0-0.2,0.1-0.4,0.2-0.5
		c0.1-0.1,0.3-0.2,0.5-0.2s0.3,0.1,0.5,0.2s0.2,0.3,0.2,0.5v0.3H244.2z M243.4,10.1l-2.8,4.5l0.4,0.3l2.8-4.5L243.4,10.1z
		 M241.7,9.8c-0.2-0.2-0.5-0.3-0.8-0.3s-0.6,0.1-0.8,0.3s-0.3,0.5-0.3,0.8v0.3c0,0.3,0.1,0.6,0.3,0.9c0.2,0.2,0.5,0.3,0.8,0.3
		s0.6-0.1,0.8-0.3s0.3-0.5,0.3-0.8v-0.3C242,10.3,241.9,10,241.7,9.8z M241.5,10.9c0,0.2,0,0.4-0.2,0.5c-0.1,0.1-0.3,0.2-0.4,0.2
		c-0.2,0-0.3-0.1-0.5-0.2c-0.1-0.1-0.2-0.3-0.2-0.5v-0.3c0-0.2,0.1-0.4,0.2-0.5c0.1-0.1,0.3-0.2,0.5-0.2s0.3,0.1,0.5,0.2
		c0.1,0.1,0.2,0.3,0.2,0.5v0.3H241.5z"/>
</g>
<g style="enable-background:new    ;">
	<path style="fill:#2D2D2D;" d="M31.1,15c-0.2,0.2-0.6,0.3-1.1,0.3s-0.9-0.2-1.2-0.6c-0.3-0.4-0.4-1-0.4-1.7v-0.6
		c0-0.7,0.2-1.3,0.5-1.7s0.7-0.6,1.3-0.6c0.4,0,0.8,0.1,1,0.3s0.4,0.6,0.5,1.1h0.8c-0.1-0.7-0.3-1.2-0.7-1.6c-0.4-0.4-1-0.6-1.6-0.6
		c-0.5,0-1,0.1-1.3,0.4s-0.7,0.6-0.9,1c-0.2,0.4-0.3,1-0.3,1.6V13c0,0.6,0.1,1.1,0.3,1.6c0.2,0.4,0.5,0.8,0.9,1s0.8,0.4,1.3,0.4
		c0.7,0,1.3-0.2,1.7-0.5c0.4-0.3,0.7-0.9,0.8-1.6h-0.8C31.5,14.4,31.3,14.8,31.1,15z"/>
	<path style="fill:#2D2D2D;" d="M34.4,15.2V9.5h-0.8v6.4h3.9v-0.7H34.4z"/>
</g>
<g id="Group_101" transform="translate(14.841 8.722)">
	<path id="Rectangle_400" style="fill:#2D2D2D;" d="M8.3,0h1.2c0.2,0,0.4,0.2,0.4,0.4v7.3c0,0.2-0.2,0.4-0.4,0.4H8.3
		c-0.2,0-0.4-0.2-0.4-0.4V0.4C7.9,0.2,8.1,0,8.3,0z"/>
	<path id="Rectangle_401" style="fill:#2D2D2D;" d="M5.7,1.5h1.2c0.2,0,0.4,0.2,0.4,0.4v5.7C7.3,7.8,7.1,8,6.9,8H5.7
		C5.5,8,5.3,7.8,5.3,7.6V1.9C5.3,1.7,5.5,1.5,5.7,1.5z"/>
	<path id="Rectangle_402" style="fill:#2D2D2D;" d="M3,3.1h1.2c0.2,0,0.4,0.2,0.4,0.4v4.2c0,0.2-0.2,0.4-0.4,0.4H3
		c-0.2,0-0.4-0.2-0.4-0.4V3.5C2.6,3.3,2.8,3.1,3,3.1z"/>
	<path id="Rectangle_403" style="fill:#2D2D2D;" d="M0.4,4.6h1.2C1.8,4.6,2,4.8,2,5v2.6C2,7.8,1.8,8,1.6,8H0.4C0.2,8.1,0,7.9,0,7.7
		V5C0,4.8,0.2,4.6,0.4,4.6z"/>
</g>
</svg>
