<svg xmlns="http://www.w3.org/2000/svg" width="150.406" height="17.51" viewBox="0 0 150.406 17.51">
  <g id="coolink-logo-light" transform="translate(-186.113 -122.403)">
    <g id="Group_44" data-name="Group 44" transform="translate(186.113 122.658)">
      <path id="Path_19" data-name="Path 19" d="M189.654,134.815v-7.276a1.458,1.458,0,0,1,1.452-1.452h9.064a1.458,1.458,0,0,1,1.452,1.452v5.169h3.541v-5.169a4.881,4.881,0,0,0-.212-1.452,4.993,4.993,0,0,0-4.78-3.54h-9.064a5,5,0,0,0-4.992,4.992v7.276A5,5,0,0,0,191,139.789h1.77v-3.558H191A1.419,1.419,0,0,1,189.654,134.815Z" transform="translate(-186.113 -122.547)" fill="#fff"/>
      <path id="Path_20" data-name="Path 20" d="M205.035,122.547h-1.77v3.558h1.77a1.432,1.432,0,0,1,1.328,1.434v7.276a1.443,1.443,0,0,1-1.452,1.434h-9.064a1.428,1.428,0,0,1-1.434-1.434v-5.187h-3.541v5.328a6.151,6.151,0,0,0,.195,1.292,5.015,5.015,0,0,0,4.78,3.541h9.064a4.994,4.994,0,0,0,4.992-4.974v-7.276A5,5,0,0,0,205.035,122.547Z" transform="translate(-182.447 -122.547)" fill="#fff"/>
    </g>
    <g id="Group_45" data-name="Group 45" transform="translate(217.11 122.654)">
      <path id="Path_21" data-name="Path 21" d="M220.888,139.8H208.612a4.994,4.994,0,0,1-4.989-4.989v-7.276a4.992,4.992,0,0,1,4.989-4.987h12.277v3.541H208.612a1.448,1.448,0,0,0-1.448,1.446v7.276a1.45,1.45,0,0,0,1.448,1.448h12.277Z" transform="translate(-203.623 -122.545)" fill="#fff"/>
    </g>
    <g id="Group_46" data-name="Group 46" transform="translate(297.772 122.647)">
      <path id="Path_22" data-name="Path 22" d="M249.188,139.806V127.528a4.992,4.992,0,0,1,4.989-4.987h7.276a4.991,4.991,0,0,1,4.987,4.987v12.279H262.9V127.528a1.448,1.448,0,0,0-1.446-1.446h-7.276a1.449,1.449,0,0,0-1.448,1.446v12.279Z" transform="translate(-249.188 -122.541)" fill="#fff"/>
    </g>
    <g id="Group_47" data-name="Group 47" transform="translate(290.691 129.721)">
      <rect id="Rectangle_339" data-name="Rectangle 339" width="3.541" height="10.184" fill="#fff"/>
    </g>
    <g id="Group_48" data-name="Group 48" transform="translate(283.068 122.64)">
      <rect id="Rectangle_340" data-name="Rectangle 340" width="3.541" height="17.265" fill="#fff"/>
    </g>
    <g id="Group_49" data-name="Group 49" transform="translate(237.916 122.64)">
      <path id="Path_23" data-name="Path 23" d="M229.425,139.788h-9.06a4.993,4.993,0,0,1-4.989-4.987v-7.276a4.994,4.994,0,0,1,4.989-4.989h9.06a4.993,4.993,0,0,1,4.987,4.989V134.8A4.993,4.993,0,0,1,229.425,139.788Zm-9.06-13.711a1.45,1.45,0,0,0-1.448,1.448V134.8a1.449,1.449,0,0,0,1.448,1.446h9.06a1.449,1.449,0,0,0,1.446-1.446v-7.276a1.449,1.449,0,0,0-1.446-1.448Z" transform="translate(-215.376 -122.537)" fill="#fff"/>
    </g>
    <g id="Group_50" data-name="Group 50" transform="translate(260.492 122.64)">
      <path id="Path_24" data-name="Path 24" d="M242.176,139.788h-9.06a4.993,4.993,0,0,1-4.987-4.987v-7.276a4.994,4.994,0,0,1,4.987-4.989h9.06a4.994,4.994,0,0,1,4.989,4.989V134.8A4.994,4.994,0,0,1,242.176,139.788Zm-9.06-13.711a1.449,1.449,0,0,0-1.446,1.448V134.8a1.449,1.449,0,0,0,1.446,1.446h9.06a1.449,1.449,0,0,0,1.448-1.446v-7.276a1.45,1.45,0,0,0-1.448-1.448Z" transform="translate(-228.129 -122.537)" fill="#fff"/>
    </g>
    <rect id="Rectangle_341" data-name="Rectangle 341" width="3.541" height="3.541" rx="1.77" transform="translate(290.691 122.64)" fill="#fff"/>
    <path id="Path_25" data-name="Path 25" d="M272.32,128.97h0l6.567-6.567h-5.01l-8.869,8.869,0,0-.533.533v-9.4h-3.541v17.508h3.541v-3.1l3.036-3.036,6.134,6.133h5.01l-8.638-8.638Z" transform="translate(57.633 0)" fill="#fff"/>
  </g>
</svg>
