<svg width="115" height="105" viewBox="0 0 115 105" fill="none" xmlns="http://www.w3.org/2000/svg">
<path d="M70.4878 3.94158L70.5079 3.95362L70.5291 3.96372L105.547 20.6464C105.549 20.647 105.55 20.6477 105.551 20.6484C110.303 23.0245 114.53 28.0328 114.5 33.3537V33.3565V90.3565C114.5 92.7037 112.597 94.6064 110.25 94.6064C107.903 94.6064 106 92.7037 106 90.3565V51.1786V50.3854L105.285 50.7275L95.7846 55.2685L95.5003 55.4045V55.7197V79.0277C95.4946 89.2147 88.8672 98.2151 79.1416 101.245C72.2733 103.223 65.153 104.187 58.0058 104.107L57.9951 104.107C50.8468 104.179 43.7263 103.207 36.8591 101.221C27.1333 98.1912 20.5058 89.191 20.5001 79.0039V55.7292V55.4136L20.2152 55.2778L10.4554 50.628C7.65168 49.1178 5.32747 46.8518 3.74677 44.0871L3.31341 44.3348L3.74676 44.0871C-0.922421 35.9211 1.91248 25.5161 10.0785 20.8469L10.0785 20.8469L10.085 20.8431C10.1965 20.7771 10.3202 20.7128 10.449 20.6483L45.8652 3.74984L45.8824 3.74164L45.899 3.73214C53.5297 -0.651146 62.9329 -0.571073 70.4878 3.94158ZM76.6623 93.1079L76.6624 93.1081L76.675 93.1041C82.8218 91.1712 87.0024 85.4716 87 79.028C87 79.0279 87 79.0278 87 79.0278V60.2558V59.4628L86.2844 59.8047L70.1298 67.5237L70.1101 67.5332L70.0912 67.5443C66.4632 69.6858 62.3211 70.8012 58.1082 70.7713L58.1034 70.7713C53.6724 70.7824 49.3211 69.5936 45.5111 67.3312L45.4914 67.3195L45.4708 67.3097L29.715 59.8046L29 59.4641V60.2561V79.0278C29 79.0278 29 79.0279 29 79.028C28.9975 85.4716 33.1782 91.171 39.325 93.1041L39.3249 93.1043L39.3376 93.1079C45.4043 94.8414 51.6908 95.683 58 95.6067C64.3091 95.683 70.5957 94.8414 76.6623 93.1079ZM101.915 42.9516L101.941 42.9394L101.965 42.9245C104.479 41.3555 106.005 38.5995 106 35.6359L106 35.6308C105.963 32.5051 104.253 29.6395 101.52 28.122L101.506 28.1145L101.492 28.1078L66.49 11.4326C61.4249 8.31969 55.0598 8.23637 49.9147 11.2161L14.3315 28.2124L14.3148 28.2204L14.2988 28.2296C12.9148 29.0214 11.78 30.1847 11.0232 31.5882C8.78532 35.738 10.3354 40.9163 14.4854 43.1542L14.4965 43.1602L14.508 43.1656L49.5336 59.8264C54.5971 62.9455 60.9656 63.0291 66.1093 60.0428L101.915 42.9516Z" stroke="#2D2D2D"/>
</svg>
