<svg width="419" height="825" viewBox="0 0 419 825" fill="none" xmlns="http://www.w3.org/2000/svg">
<path d="M412.622 189.537C412.514 189.628 412.446 189.765 412.446 189.917C412.446 190.193 412.67 190.417 412.946 190.417H413.122H413.297C414.934 190.417 416.213 190.903 417.164 191.688C417.908 192.443 418.403 193.694 418.403 195.523V278.568C418.403 280.026 417.921 281.121 417.148 281.894C416.395 282.647 415.139 283.149 413.297 283.149H412.946C412.67 283.149 412.446 283.373 412.446 283.649V761.069C412.446 778.458 406.366 793.222 394.197 805.391C382.028 817.56 367.263 823.641 349.874 823.641H67.8024C50.591 823.641 36.0011 817.562 23.8304 805.391C11.6612 793.222 5.58082 778.458 5.58082 761.069V304.498C5.58082 304.221 5.35696 303.998 5.08082 303.998C3.77589 303.998 2.86511 303.677 2.10555 302.918C2.09251 302.905 2.07875 302.892 2.06435 302.881C1.34001 302.301 0.850421 301.24 0.850421 299.767V251.237C0.850421 250.154 1.31609 249.037 2.13611 248.053C2.91448 247.119 3.99864 246.656 5.08082 246.656C5.35696 246.656 5.58082 246.432 5.58082 246.156V228.11C5.58082 227.834 5.35696 227.61 5.08082 227.61H4.73042C3.48412 227.61 2.57123 227.156 1.78572 226.214C0.942988 225.202 0.5 224.263 0.5 223.38V176.076C0.5 174.627 0.977565 173.511 1.78572 172.542C2.56409 171.608 3.64825 171.145 4.73042 171.145H5.08082C5.35696 171.145 5.58082 170.921 5.58082 170.645V142.963C5.58082 142.687 5.35696 142.463 5.08082 142.463H4.55521C4.2437 142.463 3.94037 142.424 3.68517 142.351C3.42323 142.276 3.24951 142.177 3.15676 142.084C3.0685 141.996 2.96915 141.828 2.89408 141.528C2.81977 141.231 2.77761 140.837 2.77761 140.335V115.106C2.77761 114.106 2.94536 113.517 3.21924 113.106C3.42351 112.8 3.89428 112.628 4.55521 112.628H5.256C5.53214 112.628 5.756 112.404 5.756 112.128V63.072C5.756 45.6831 11.8364 30.9187 24.0056 18.7496C36.1763 6.57879 50.7662 0.5 67.9776 0.5H350.05C367.439 0.5 382.203 6.58038 394.372 18.7496C406.541 30.9187 412.622 45.6831 412.622 63.072V189.537ZM108.598 24.3528C108.598 24.0767 108.375 23.8528 108.098 23.8528H68.328C57.5082 23.8528 48.0954 27.7599 40.4681 35.3872C32.8407 43.0146 28.9336 52.4273 28.9336 63.2472V761.244C28.9336 772.066 32.8417 781.473 40.4601 789.446L40.464 789.45C48.0925 797.256 57.5074 801.164 68.328 801.164H349.174C359.994 801.164 369.409 797.256 377.038 789.45C384.661 781.649 388.568 772.239 388.568 761.244V63.4224C388.568 52.6025 384.661 43.1898 377.034 35.5624C369.406 27.9351 359.994 24.028 349.174 24.028H310.98C310.704 24.028 310.48 24.2519 310.48 24.528V31.8864C310.48 37.1704 308.442 41.7652 304.167 45.527C299.878 49.3019 294.914 51.184 289.255 51.184H130.174C123.977 51.184 118.846 49.2945 114.743 45.5338C110.636 41.7688 108.598 37.3449 108.598 31.8864V24.3528ZM186.059 31.1824C186.036 31.2057 186.015 31.2313 185.997 31.2586C185.603 31.8496 185.387 32.47 185.387 33.1128C185.387 34.5443 185.563 35.3675 185.997 36.0182C186.004 36.0288 186.011 36.0392 186.019 36.0492C186.032 36.0651 186.045 36.0801 186.059 36.0944C186.321 36.3565 186.679 36.5199 187.08 36.6201C187.484 36.721 187.965 36.7664 188.515 36.7664H230.563C231.168 36.7664 231.954 36.5733 232.567 36.1736C233.52 35.6785 233.866 34.5359 233.866 33.1128C233.866 32.3489 233.359 31.6936 232.615 31.136C231.855 30.5659 231.227 30.3352 230.563 30.3352H188.515C187.357 30.3352 186.52 30.7217 186.059 31.1824ZM247.528 29.1082C246.425 30.3961 245.831 31.7336 245.831 33.1128C245.831 35.1392 246.388 36.6802 247.554 37.8464C248.721 39.0125 250.262 39.5696 252.288 39.5696C253.652 39.5696 255.165 38.9888 256.468 37.8724C257.808 36.7241 258.57 35.1827 258.57 33.1128C258.57 31.7093 257.779 30.1792 256.471 29.0565C255.014 27.7822 253.676 27.1816 252.288 27.1816C250.258 27.1816 248.7 27.7418 247.528 29.1082Z" stroke="black" stroke-linecap="round" stroke-linejoin="round"/>
</svg>
